<svg width="32" height="32" viewBox="0 0 32 32" fill="none" xmlns="http://www.w3.org/2000/svg">
<path fill-rule="evenodd" clip-rule="evenodd" d="M15.6562 0.0936823C15.3956 0.228834 13.4587 2.18819 13.3434 2.43346C13.1803 2.78026 13.3883 3.08601 13.7872 3.08601C13.9213 3.08601 14.122 2.92204 14.7288 2.31666L15.5 1.54731V4.76932V7.99134L13.8906 8.88966C13.0055 9.38373 12.2321 9.84412 12.1719 9.91267C11.9189 10.2011 12.1158 10.675 12.4887 10.675C12.5971 10.675 13.2886 10.3235 14.3127 9.74781C15.2199 9.23786 15.9943 8.82874 16.0336 8.83864C16.1472 8.86721 23.8697 13.2046 23.8725 13.2413C23.8762 13.2908 16.0945 17.6544 16.0026 17.6544C15.9591 17.6544 14.1698 16.6683 12.0263 15.463C9.05756 13.7937 8.14725 13.2545 8.20519 13.1999C8.247 13.1605 8.9 12.7812 9.65625 12.3571C10.4125 11.9331 11.0945 11.5276 11.1719 11.4559C11.4598 11.1894 11.2496 10.654 10.857 10.654C10.6778 10.654 7.26031 12.5969 7.01562 12.8379L6.8125 13.0379V18.1396V23.2413L4.02725 24.8059C2.49537 25.6665 1.2315 26.36 1.21869 26.347C1.20581 26.3341 1.32012 25.885 1.47263 25.349C1.62519 24.813 1.75 24.3279 1.75 24.2709C1.75 24.2139 1.69169 24.0925 1.62044 24.0012C1.45238 23.7855 1.13844 23.774 0.958188 23.9769C0.829437 24.1217 0 26.9414 0 27.2341C0 27.4933 0.233125 27.7916 0.518125 27.8969C0.907 28.0406 3.41444 28.7542 3.53075 28.7542C3.68406 28.7542 3.9375 28.4634 3.9375 28.2875C3.9375 27.967 3.71738 27.8344 2.71875 27.5531C2.20312 27.4078 1.75769 27.2749 1.72881 27.2576C1.7 27.2403 1.8125 27.1479 1.97881 27.0523C2.78506 26.5885 7.15219 24.1416 7.19263 24.1309C7.218 24.1243 7.84181 24.4593 8.57881 24.8756L9.91881 25.6324L9.95869 26.2315C10.0366 27.402 10.333 28.3174 10.9308 29.2331C11.801 30.566 13.1103 31.4956 14.6727 31.8898C15.2549 32.0367 16.7451 32.0367 17.3273 31.8898C18.8682 31.501 20.1786 30.5809 21.0343 29.287C21.6373 28.3751 21.9673 27.3743 22.0419 26.2315L22.081 25.6324L23.4111 24.8835C24.1427 24.4716 24.7605 24.1323 24.7839 24.1296C24.876 24.119 30.3054 27.2097 30.2634 27.2489C30.2389 27.2719 29.7969 27.4091 29.2812 27.5539C28.2824 27.8344 28.0625 27.9669 28.0625 28.2875C28.0625 28.4626 28.3156 28.7542 28.4675 28.7542C28.6133 28.7542 31.4422 27.9322 31.6322 27.8346C31.8007 27.7481 32 27.4044 32 27.2005C32 26.9319 31.1618 24.1118 31.0418 23.9769C30.8616 23.774 30.5476 23.7855 30.3796 24.0012C30.3083 24.0925 30.25 24.2139 30.25 24.2709C30.25 24.3279 30.3748 24.813 30.5274 25.349C30.6799 25.885 30.7947 26.3336 30.7824 26.346C30.7701 26.3583 29.5063 25.6646 27.9738 24.8044L25.1875 23.2404V21.3704C25.1875 19.5741 25.1824 19.4938 25.0579 19.3342C24.8886 19.117 24.578 19.1077 24.3859 19.314C24.2525 19.4573 24.25 19.4952 24.25 21.3885V23.3172L23.1245 23.9545C22.5055 24.305 21.9743 24.5918 21.944 24.5918C21.9137 24.5918 21.8697 24.4853 21.8462 24.3553C21.7694 23.9298 21.3919 23.0864 21.0384 22.5502C20.6026 21.8892 19.7448 21.0631 19.0736 20.6577C18.4843 20.3018 17.5231 19.9518 16.9375 19.8801L16.5312 19.8302L16.5149 19.168L16.4984 18.5058L20.3178 16.3616C22.4184 15.1822 24.1626 14.2078 24.1936 14.1963C24.2262 14.1841 24.25 14.8949 24.25 15.8862V17.5971L24.4034 17.7519C24.5989 17.9492 24.8386 17.9492 25.0341 17.7519L25.1875 17.5971V15.3175V13.0379L24.9844 12.8363C24.8726 12.7254 22.918 11.5892 20.6406 10.3114L16.5 7.98819V4.76775V1.54731L17.2712 2.31666C17.878 2.92204 18.0788 3.08601 18.2128 3.08601C18.6151 3.08601 18.8197 2.78033 18.6537 2.42734C18.5296 2.16334 16.5147 0.148361 16.2878 0.0613291C16.0517 -0.0292978 15.8761 -0.0202793 15.6562 0.0936823ZM11.6856 16.3616L15.5029 18.5058L15.4858 19.1679L15.4688 19.8299L15.0962 19.8768C13.1147 20.1259 11.1523 21.6956 10.3839 23.6458C10.2814 23.9059 10.1781 24.2252 10.1543 24.3553C10.1306 24.4854 10.0864 24.5918 10.0562 24.5918C10.0261 24.5918 9.50194 24.3105 8.89137 23.9668L7.78125 23.3417L7.76519 18.7583C7.75512 15.8712 7.77125 14.1828 7.80881 14.1961C7.84156 14.2078 9.58613 15.1822 11.6856 16.3616ZM16.7097 20.8097C17.8225 20.9721 18.7664 21.457 19.5928 22.2908C20.4606 23.1665 20.9057 24.0832 21.0709 25.3352C21.2582 26.7554 20.7408 28.3376 19.7334 29.4243C17.7364 31.5784 14.4703 31.6335 12.4001 29.5479C11.5362 28.6776 11.0623 27.6735 10.9201 26.4123C10.7494 24.8979 11.3591 23.2584 12.4952 22.177C13.6341 21.0929 15.1902 20.588 16.7097 20.8097ZM12.7089 23.9968C12.5796 24.1273 12.5559 24.1975 12.5869 24.3594C12.6579 24.7299 12.7919 24.781 13.6944 24.781H14.5V25.0913V25.4016L13.6819 25.4224C12.8741 25.4429 12.862 25.4454 12.7132 25.6201C12.6303 25.7174 12.5625 25.8506 12.5625 25.9162C12.5625 25.9817 12.6303 26.1149 12.7132 26.2122C12.862 26.387 12.8741 26.3894 13.6819 26.4099L14.5 26.4307V26.741V27.0514H13.7529C13.3308 27.0514 12.9385 27.0823 12.8509 27.1226C12.667 27.2071 12.5344 27.4932 12.5928 27.6791C12.6843 27.9699 12.8526 28.0075 13.9692 27.9859L15.0099 27.9658L15.2237 27.7303L15.4375 27.4947V25.9256C15.4375 24.4299 15.4314 24.3487 15.307 24.1891C15.0612 23.8738 14.9008 23.835 13.844 23.835C12.8809 23.835 12.8674 23.8369 12.7089 23.9968ZM16.4327 24.0193L16.25 24.2037V25.9162V27.6287L16.4387 27.819L16.6273 28.0094L17.4856 27.9862C18.4226 27.9609 18.5708 27.9163 18.9333 27.5505C19.3476 27.1323 19.4062 26.9298 19.4062 25.9162C19.4062 24.8878 19.3456 24.6879 18.9013 24.2525C18.5684 23.9263 18.2311 23.835 17.3591 23.835C16.6204 23.835 16.6141 23.8362 16.4327 24.0193ZM18.1802 24.8838C18.4037 25.0418 18.5 25.3526 18.5 25.9162C18.5 26.8055 18.3074 27.0514 17.6111 27.0514H17.1875V25.9162V24.781H17.6111C17.9016 24.781 18.0804 24.8133 18.1802 24.8838Z" fill="black"/>
</svg>
