<svg width="38" height="40" viewBox="0 0 38 40" fill="none" xmlns="http://www.w3.org/2000/svg">
<path fill-rule="evenodd" clip-rule="evenodd" d="M9.63286 7.4379V14.7557H5.37679C1.83456 14.7557 1.09322 14.7758 0.956506 14.8757C0.796106 14.9931 0.792299 15.1701 0.792299 22.5817V30.1676L0.992037 30.3293C1.18729 30.4874 1.59379 30.491 19.1079 30.491C36.622 30.491 37.0285 30.4874 37.2238 30.3293L37.4235 30.1676V22.5817C37.4235 15.1701 37.4197 14.9931 37.2593 14.8757C37.1226 14.7758 36.3813 14.7557 32.839 14.7557H28.583V7.4379V0.120117H19.1079H9.63286V7.4379ZM15.5548 4.94224C15.5548 6.98953 15.5707 8.66459 15.5901 8.66459C15.6095 8.66459 16.0716 8.43025 16.617 8.14371L17.6087 7.62292L18.3815 8.00675L19.1542 8.39066L19.9201 8.03263L20.6859 7.67461L21.5956 8.2119C22.0959 8.5074 22.5213 8.74918 22.5409 8.74918C22.5605 8.74918 22.5765 7.0551 22.5765 4.98454V1.2199H24.9875H27.3986V7.9878V14.7557H19.1079H10.8172V7.9878V1.2199H13.186H15.5548V4.94224ZM21.3075 3.97139V6.72288L20.9945 6.56231L20.6815 6.40166L19.8948 6.76678L19.1081 7.13191L18.331 6.76264L17.5539 6.39336L17.1494 6.59843C16.9269 6.71112 16.7245 6.80341 16.6996 6.80341C16.6749 6.80341 16.6546 5.54712 16.6546 4.01166V1.2199H18.981H21.3075V3.97139ZM30.6979 1.76979V2.31968H30.1903H29.6828V2.86957V3.41947H30.1863H30.6899L30.715 3.94821L30.7402 4.47695H31.2901H31.84L31.8652 3.94821L31.8904 3.41947H32.4363H32.9821V2.86957V2.31968H32.4322H31.8823V1.76979V1.2199H31.2901H30.6979V1.76979ZM5.74132 7.4802V8.41079H6.29121H6.84111V7.4802V6.54962H6.29121H5.74132V7.4802ZM5.74132 11.1179V12.9791H6.29121H6.84111V11.1179V9.25678H6.29121H5.74132V11.1179ZM6.67191 19.5355C6.67191 21.5595 6.69314 23.2156 6.71903 23.2156C6.745 23.2156 7.22307 22.9994 7.78142 22.7353L8.79669 22.2549L9.54886 22.6236L10.301 22.9923L11.0733 22.6405L11.8455 22.2888L12.7062 22.7926L13.5667 23.2963L13.5887 19.5759L13.6108 15.8555H16.0632H18.5157V22.5811V29.3067H10.2251H1.93438V22.5811V15.8555H4.30315H6.67191V19.5355ZM12.5092 18.6049C12.5092 20.1171 12.4924 21.3544 12.4717 21.3544C12.4512 21.3544 12.2976 21.2737 12.1305 21.1751L11.8266 20.9959L11.046 21.3732L10.2655 21.7506L9.47712 21.3853L8.68883 21.02L8.27539 21.2294C8.04799 21.3447 7.84165 21.439 7.81678 21.439C7.792 21.439 7.77169 20.1827 7.77169 18.6472V15.8555H10.1405H12.5092V18.6049ZM24.353 19.5774V23.2993L25.4098 22.7729L26.4666 22.2466L27.1876 22.6042C27.5842 22.8009 27.9577 22.9618 28.0177 22.9618C28.0776 22.9618 28.4432 22.8086 28.8303 22.6215L29.5339 22.2813L30.4054 22.7907C30.8848 23.0709 31.299 23.3002 31.3258 23.3002C31.3527 23.3002 31.3747 21.6251 31.3747 19.5778V15.8555H33.8281H36.2815V22.5811V29.3067H27.9908H19.7001V22.5811V15.8555H22.0266H24.353V19.5774ZM30.1903 18.6103V21.3652L29.8721 21.1864L29.5539 21.0075L28.7512 21.381L27.9485 21.7545L27.1913 21.376L26.4342 20.9973L25.9839 21.2182C25.7363 21.3396 25.5155 21.439 25.4933 21.439C25.471 21.439 25.4528 20.1827 25.4528 18.6472V15.8555H27.8216H30.1903V18.6103ZM0.75 35.0171C0.75 38.669 0.755076 38.7868 0.919197 38.9509C1.08154 39.1133 1.20117 39.1201 3.86704 39.1201C6.583 39.1201 6.64932 39.1161 6.80684 38.9423C6.94499 38.7898 6.97198 38.6028 6.99567 37.631L7.02342 36.4976H11.494H15.9647L15.9924 37.631C16.0161 38.6028 16.0431 38.7898 16.1812 38.9423C16.3387 39.1161 16.4051 39.1201 19.121 39.1201C21.7869 39.1201 21.9065 39.1133 22.0689 38.9509C22.2213 38.7985 22.2381 38.669 22.2381 37.6396V36.4976H26.7641H31.2901V37.6396C31.2901 38.669 31.3069 38.7985 31.4593 38.9509C31.6217 39.1133 31.7404 39.12 34.3991 39.1188C35.923 39.1181 37.2116 39.0896 37.2628 39.0554C37.5315 38.876 37.5504 38.605 37.5504 34.9381V31.2524H19.1502H0.75V35.0171ZM18.6003 33.8754V35.3986L10.2462 35.377L1.89208 35.3555L1.86899 33.8538L1.84589 32.3522H10.2231H18.6003V33.8754ZM36.3661 33.875V35.3978H28.0331H19.7001V33.875V32.3522H28.0331H36.3661V33.875ZM5.82592 37.2605V38.0235L3.859 38.0007L1.89208 37.978L1.86696 37.3515C1.85317 37.0068 1.86146 36.6738 1.88548 36.6113C1.92025 36.5207 2.32438 36.4976 3.87753 36.4976H5.82592V37.2605ZM21.096 37.2589V37.978L19.1291 38.0007L17.1621 38.0235V37.2589V36.4944L19.1291 36.5172L21.096 36.5399V37.2589ZM36.3661 37.2589V38.0203H34.4203H32.4745V37.2589V36.4976H34.4203H36.3661V37.2589Z" fill="#FFD873"/>
</svg>
