<svg width="40" height="40" viewBox="0 0 40 40" fill="none" xmlns="http://www.w3.org/2000/svg">
<path fill-rule="evenodd" clip-rule="evenodd" d="M18.3625 0.172572C13.6622 0.807233 9.90878 4.36231 8.96838 9.0704C8.78276 9.99967 8.78276 12.148 8.96838 13.0773C9.41559 15.3159 10.4306 17.2198 12.029 18.8182C13.6091 20.3983 15.3691 21.3499 17.624 21.8432C18.6211 22.0612 20.7789 22.0802 21.7767 21.8796C24.0215 21.4284 25.9199 20.416 27.5177 18.8182C29.0965 17.2393 30.043 15.49 30.5445 13.2231C30.7799 12.1592 30.7799 9.98845 30.5445 8.92451C30.0428 6.65736 29.0951 4.90408 27.519 3.3281C25.9367 1.74572 24.2021 0.807157 21.9468 0.312973C21.1445 0.137186 19.1911 0.0606947 18.3625 0.172572ZM19.1632 1.79758C19.1632 2.42912 19.3391 2.6849 19.7733 2.6849C20.2084 2.6849 20.3834 2.42942 20.3834 1.79415V1.30523L20.6313 1.3442C20.7676 1.36563 21.1365 1.42268 21.4511 1.47103C21.7657 1.5193 22.3692 1.67167 22.7922 1.80948C24.3297 2.31068 25.4448 3.00353 26.6442 4.20292C28.3136 5.87231 29.1505 7.61652 29.4928 10.1396L29.5368 10.4637H29.0505C28.418 10.4637 28.1622 10.6394 28.1622 11.0738C28.1622 11.5069 28.4183 11.6839 29.0448 11.6839H29.5254L29.4878 11.9699C29.1511 14.528 28.3223 16.2718 26.6468 17.9473C24.9932 19.6009 23.2145 20.4533 20.7075 20.7933L20.3834 20.8373V20.351C20.3834 19.7185 20.2078 19.4628 19.7733 19.4628C19.3389 19.4628 19.1632 19.7185 19.1632 20.351V20.8373L18.8391 20.7933C16.3002 20.4489 14.4152 19.529 12.7758 17.8342C11.6808 16.7023 10.9855 15.5546 10.509 14.0927C10.3712 13.6697 10.2188 13.0662 10.1705 12.7516C10.1222 12.437 10.0651 12.0681 10.0437 11.9318L10.0047 11.6839H10.4936C11.1289 11.6839 11.3844 11.5089 11.3844 11.0738C11.3844 10.6387 11.1289 10.4637 10.4936 10.4637H10.0047L10.0437 10.2159C10.0651 10.0796 10.1222 9.71063 10.1705 9.39604C10.2188 9.08146 10.3712 8.47799 10.509 8.05496C11.0102 6.51742 11.703 5.40231 12.9024 4.20292C14.1171 2.9882 15.3167 2.25287 16.8776 1.76616C17.4667 1.58245 18.5651 1.35854 19.0679 1.31957C19.1349 1.31438 19.1632 1.45615 19.1632 1.79758ZM19.5064 4.29825C19.1666 4.4841 19.1632 4.50988 19.1632 6.96097V9.30125L18.9363 9.39528C18.5575 9.55215 18.1177 10.0971 17.9758 10.5853C17.8685 10.9542 17.8626 11.0875 17.9384 11.4262C17.9879 11.6476 18.1135 11.9539 18.2172 12.107L18.406 12.3851L17.5263 14.0923C17.0424 15.0313 16.6465 15.8882 16.6465 15.9965C16.6465 16.2891 16.7672 16.4625 17.0361 16.5562C17.5023 16.7187 17.5945 16.6078 18.5825 14.6961L19.4889 12.9423L19.8428 12.9314C20.8383 12.9007 21.6011 12.0862 21.6029 11.0523C21.6033 10.8098 21.5555 10.4961 21.4966 10.3553C21.353 10.0115 20.8923 9.51204 20.6114 9.39574L20.3834 9.30125L20.381 6.96547C20.3785 4.51087 20.375 4.48463 20.0262 4.29886C19.822 4.19011 19.7043 4.18995 19.5064 4.29825ZM20.0714 10.4983C20.1893 10.5592 20.33 10.7161 20.3842 10.8469C20.5957 11.3574 20.0511 11.8938 19.5375 11.681C19.2023 11.5422 19.0316 11.1628 19.1622 10.8474C19.2563 10.6204 19.5476 10.397 19.7581 10.3905C19.8125 10.3888 19.9536 10.4373 20.0714 10.4983ZM35.1209 22.5243C34.3718 22.6317 33.4756 22.996 32.2789 23.6796C31.6716 24.0266 31.0993 24.3593 31.0072 24.419C30.8542 24.5182 30.8233 24.5095 30.6451 24.3173C30.2403 23.8804 29.4144 23.7146 28.6364 23.9139C27.9213 24.0971 26.6749 24.6804 24.9096 25.6578C24.035 26.142 23.031 26.6823 22.6785 26.8586L22.0374 27.179L20.3906 27.0121C17.8033 26.7499 17.4917 26.6916 16.8967 26.3584C14.554 25.0462 13.5267 24.5673 11.8125 23.9884C9.08613 23.0676 6.31199 22.6236 3.65743 22.6829C1.31372 22.7352 0.25 23.0505 0.25 23.693C0.25 23.9428 0.56428 24.2673 0.806338 24.2673C0.906395 24.2673 1.25972 24.1917 1.59147 24.0994C2.13789 23.9472 2.37438 23.9312 4.10128 23.9289C5.57773 23.927 6.20576 23.9576 6.88488 24.0646C10.299 24.6023 12.9154 25.5002 15.6855 27.0846C17.1854 27.9426 17.0013 27.8952 20.0021 28.1956C21.0717 28.3027 22.3758 28.4611 22.9001 28.5476C26.188 29.0897 28.0857 30.0887 28.573 31.534C28.7323 32.0065 28.7263 32.3154 28.5502 32.7032C28.0818 33.7347 26.9561 33.7499 23.7009 32.769C21.5968 32.135 21.3419 32.1022 18.8582 32.1456C16.6927 32.1835 15.5369 32.2826 13.7868 32.5803C13.072 32.7019 12.9228 32.7524 12.7763 32.9226C12.553 33.1823 12.5585 33.4559 12.7918 33.6892C13.0134 33.9109 13.2171 33.9221 14.1299 33.7629C15.4563 33.5314 16.8904 33.4083 18.7605 33.3652C21.024 33.3131 21.2688 33.3428 23.2739 33.9139C24.054 34.1361 24.9754 34.3812 25.3214 34.4586C25.6675 34.5361 25.9506 34.6216 25.9506 34.6485C25.9506 34.7376 23.5709 36.0663 22.2461 36.7169C20.0478 37.7965 19.0676 38.0464 17.9719 37.8065C15.471 37.2588 9.40888 34.6834 2.59585 31.2742C0.930647 30.441 0.678979 30.3774 0.408093 30.7218C0.321153 30.8323 0.25 30.9963 0.25 31.0861C0.25 31.5025 0.382774 31.5796 4.60118 33.6116C12.5428 37.4369 17.2979 39.2506 19.024 39.1128C20.5407 38.9917 23.7851 37.4537 27.7809 34.9618C32.0087 32.3251 36.7577 28.7163 38.1345 27.0939C38.5978 26.5479 38.7944 26.1655 38.8785 25.6464C38.9085 25.4611 38.9967 25.2049 39.0745 25.0769C39.2478 24.792 39.331 24.2836 39.2633 23.923C39.147 23.303 38.2842 22.7681 37.056 22.5547C36.3176 22.4264 35.854 22.4191 35.1209 22.5243ZM36.9326 23.765C37.2054 23.8228 37.5485 23.9247 37.6953 23.9914L37.962 24.1127L37.5807 24.0725C37.0807 24.0199 36.0523 24.2059 35.2073 24.5018C34.1442 24.8741 33.1064 25.4108 31.783 26.2727C30.7656 26.9352 29.2148 27.8678 27.9335 28.5873L27.6665 28.7372L27.1521 28.5042C26.8693 28.376 26.6397 28.254 26.6419 28.233C26.6442 28.212 27.2874 27.8791 28.0714 27.493C28.8554 27.107 30.0288 26.4601 30.6789 26.0554C32.4074 24.9795 33.5958 24.3055 34.2278 24.0423C35.1312 23.6663 36.0315 23.5739 36.9326 23.765ZM29.7912 25.0889C29.8588 25.1983 28.1355 26.1559 26.4845 26.9266L24.8448 27.692L24.4751 27.6115C24.2717 27.5673 24.1344 27.5034 24.17 27.4695C24.4402 27.2124 27.9765 25.4046 28.6961 25.1559C29.0588 25.0305 29.7298 24.9895 29.7912 25.0889ZM37.6137 25.3302C37.8039 25.4505 37.5871 25.9462 37.1171 26.4655C36.111 27.5774 33.0305 30.0185 30.2861 31.8789L29.9314 32.1194L29.8428 31.6102C29.7321 30.975 29.4705 30.4136 29.0764 29.9659C28.9092 29.7759 28.7723 29.5892 28.7723 29.551C28.7723 29.5128 28.8964 29.4223 29.0478 29.3501C29.4583 29.1543 31.4231 27.9616 32.5092 27.2487C33.954 26.3005 35.408 25.6316 36.5893 25.3716C37.1399 25.2504 37.4667 25.2372 37.6137 25.3302Z" fill="#FFD873"/>
</svg>
