<svg width="37" height="39" viewBox="0 0 37 39" fill="none" xmlns="http://www.w3.org/2000/svg">
<path fill-rule="evenodd" clip-rule="evenodd" d="M8.59385 0.147604C8.48335 0.234464 8.3929 0.357242 8.3929 0.420385C8.3929 0.652139 7.97591 0.961678 7.54253 1.05159C7.04425 1.15507 6.76216 1.07729 6.51409 0.768131C6.23345 0.41825 5.88746 0.482385 5.06591 1.03657C4.28387 1.56406 4.2009 1.70803 4.39688 2.19785C4.54094 2.55795 4.50243 2.7772 4.22027 3.20357C3.9802 3.56634 3.70002 3.72625 3.30423 3.72625C2.82646 3.72625 2.70719 3.86756 2.52783 4.64656C2.26176 5.80228 2.30019 5.97844 2.88244 6.27333C3.2234 6.44606 3.35121 6.67263 3.40657 7.20241C3.45248 7.64121 3.44508 7.66653 3.1781 7.98606C2.78498 8.45658 2.80747 8.64776 3.35677 9.5005C3.85041 10.2668 4.02283 10.3788 4.46338 10.2195C4.85818 10.0767 5.14057 10.1167 5.52187 10.3693C5.93802 10.6449 6.02885 10.7851 6.02885 11.1516C6.02885 11.7968 6.19647 11.9218 7.37575 12.1553C8.03357 12.2857 8.08588 12.2862 8.27135 12.1646C8.37971 12.0936 8.5153 11.9247 8.57265 11.7892C8.72395 11.4317 8.92291 11.2872 9.38451 11.1996C9.88096 11.1055 10.0254 11.1451 10.395 11.4768C10.5524 11.618 10.7617 11.7335 10.8601 11.7335C11.1338 11.7335 12.4591 10.8726 12.5432 10.6402C12.5904 10.5099 12.5794 10.3031 12.5099 10.0132C12.4116 9.60376 12.4154 9.56326 12.58 9.25296C12.8299 8.78198 13.0542 8.6001 13.4376 8.55778C14.209 8.47259 14.2414 8.43385 14.4612 7.33243C14.6314 6.47977 14.582 6.27219 14.156 6.05081C13.7181 5.82317 13.5684 5.57678 13.5256 5.01276C13.4895 4.53857 13.4952 4.52012 13.7624 4.24085C14.1628 3.82226 14.136 3.61842 13.5677 2.75646C13.0605 1.9873 12.9019 1.88297 12.4749 2.0374C12.0875 2.17749 11.8026 2.14028 11.4243 1.90036C11.04 1.65663 10.7962 1.28296 10.8608 1.03626C10.8832 0.950621 10.8544 0.767902 10.7968 0.630176C10.6836 0.359149 10.6116 0.328873 9.55091 0.1065C8.84322 -0.0419023 8.83422 -0.041521 8.59385 0.147604ZM9.691 1.50457C9.69436 1.75448 9.98902 2.27236 10.2992 2.57328C10.7949 3.0544 11.4442 3.34495 12.0236 3.34495C12.6445 3.34495 12.7152 3.44775 12.4643 3.98638C12.0693 4.83477 12.3546 6.22239 13.0432 6.80182C13.3927 7.09587 13.3326 7.30597 12.867 7.41731C12.4968 7.50592 12.0806 7.83697 11.7538 8.30284C11.3571 8.86831 11.2012 9.30543 11.2258 9.78297C11.2514 10.2822 11.1267 10.365 10.6723 10.1505C10.1744 9.91566 9.79044 9.8802 9.16221 10.0111C8.5336 10.1422 8.03113 10.4051 7.7691 10.7399C7.51736 11.0616 7.30574 10.9886 7.18533 10.5385C7.11753 10.285 6.97607 10.0763 6.65616 9.75788C6.06873 9.17327 5.53163 8.91193 4.91743 8.91193C4.28875 8.91193 4.1832 8.79624 4.42296 8.36972C4.87427 7.5667 4.55024 5.89036 3.85567 5.43524C3.58746 5.25953 3.59776 4.9654 3.8745 4.8989C4.27319 4.80312 4.63649 4.57129 4.96982 4.19998C5.4662 3.64702 5.67721 3.17482 5.69155 2.58502C5.70657 1.96404 5.80121 1.88572 6.26601 2.10954C6.75705 2.34602 7.1369 2.3808 7.77207 2.24742C8.40198 2.11511 8.9255 1.84218 9.16138 1.5231C9.27927 1.36357 9.36644 1.31827 9.50439 1.34466C9.60917 1.36464 9.69009 1.43396 9.691 1.50457ZM7.74469 3.67585C6.82004 3.9821 6.22445 4.61689 5.98599 5.55024C5.77238 6.38627 5.98378 7.16466 6.60728 7.83811C7.17351 8.44972 7.6178 8.64166 8.46916 8.64273C8.9724 8.64334 9.19714 8.60681 9.47396 8.47946C9.95402 8.25861 10.4976 7.74355 10.7447 7.27539C10.9251 6.93344 10.9475 6.80692 10.9475 6.12844C10.9475 5.44996 10.9251 5.32344 10.7447 4.98149C10.4954 4.50906 9.94914 3.99408 9.47396 3.78337C9.03364 3.58815 8.17129 3.53454 7.74469 3.67585ZM22.387 4.44104C22.3082 4.49861 22.1558 4.72999 22.0482 4.9551C21.9326 5.19731 21.7504 5.43249 21.6021 5.53102C21.1565 5.82714 20.0264 5.96845 19.6553 5.77444C19.5637 5.72655 19.3437 5.55497 19.1663 5.39314C18.9524 5.19792 18.7728 5.09947 18.6325 5.10053C18.4987 5.10152 18.0784 5.32611 17.488 5.71199C16.4294 6.40397 16.3717 6.49281 16.5891 7.09732C16.792 7.66165 16.7222 8.09671 16.3378 8.66271C15.8928 9.31801 15.662 9.46245 14.9689 9.51911C14.5223 9.55564 14.3721 9.59949 14.2726 9.72234C14.2028 9.80851 14.0476 10.3635 13.9275 10.9555C13.6755 12.1993 13.6965 12.294 14.2831 12.5585C14.9347 12.8524 15.2519 13.4623 15.2551 14.4267C15.2565 14.8575 15.1847 15.0147 14.7879 15.4495C14.3639 15.9142 14.3879 16.044 15.0994 17.1319C15.7924 18.1916 15.8774 18.245 16.5224 18.0257C17.0976 17.8302 17.4563 17.8999 18.0849 18.3295C18.7074 18.7547 18.9168 19.1131 18.9168 19.7531C18.9168 20.0798 18.9516 20.2062 19.0714 20.3146C19.2303 20.4584 20.8911 20.8765 21.3248 20.8818C21.59 20.8851 21.8108 20.6819 21.9642 20.2933C22.1702 19.7717 22.6809 19.4844 23.5763 19.3868C24.1304 19.3264 24.458 19.4393 24.8281 19.8183C25.2597 20.2603 25.4458 20.2368 26.4075 19.6181C26.8384 19.3409 27.2681 19.0432 27.3626 18.9566C27.5628 18.7729 27.5813 18.4996 27.4198 18.113C27.1779 17.5342 27.3388 16.9443 27.9177 16.2865C28.2713 15.8848 28.6896 15.6962 29.1798 15.7176C29.7084 15.7405 29.8242 15.5638 30.088 14.3302C30.3535 13.089 30.3346 13.0047 29.7177 12.6845C29.1833 12.4071 28.9929 12.1653 28.8582 11.5927C28.6539 10.7248 28.772 10.2012 29.2811 9.71746C29.6528 9.36438 29.6077 9.16587 28.9117 8.0948C28.2506 7.07719 28.0987 6.96463 27.6542 7.16298C27.5252 7.22048 27.1959 7.2686 26.9222 7.26998C26.4493 7.27219 26.3995 7.25442 25.9193 6.91163C25.3095 6.47634 25.0938 6.09923 25.0938 5.46795C25.0938 5.14728 25.0584 5.01421 24.9457 4.91225C24.8583 4.83309 24.3816 4.68858 23.7827 4.55955C22.6025 4.30537 22.5756 4.30308 22.387 4.44104ZM9.04866 4.93917C9.48578 5.13775 9.71258 5.48511 9.75086 6.01504C9.80577 6.77368 9.35355 7.34402 8.61894 7.44255C8.22498 7.4954 7.69398 7.29384 7.44385 6.99651C6.524 5.90332 7.73974 4.34472 9.04866 4.93917ZM23.5833 5.75728C23.8504 5.80144 23.8693 5.82393 23.9485 6.19318C23.9945 6.40732 24.1162 6.72609 24.219 6.90164C24.4632 7.31825 25.1433 7.91948 25.7312 8.2384C26.166 8.47427 26.2541 8.49334 26.9598 8.50447L27.7201 8.51637L27.9369 8.82949L28.1538 9.14254L27.9996 9.3386C27.5679 9.88744 27.4375 10.7694 27.644 11.7435C27.7948 12.455 28.0709 12.9524 28.5541 13.3832L28.9707 13.7544L28.8874 14.1186C28.8189 14.4176 28.7689 14.4901 28.6076 14.5242C27.8004 14.6949 27.2832 15.0569 26.7158 15.8481C26.2079 16.5563 26.0507 17.0589 26.1065 17.7964L26.1474 18.3381L25.8184 18.5463L25.4893 18.7545L25.2041 18.5609C24.5983 18.1498 23.9279 18.0586 22.9241 18.2507C22.0515 18.4177 21.5048 18.7581 21.0372 19.4258C20.9291 19.58 20.8966 19.585 20.539 19.5024L20.1564 19.4141L20.065 19.0061C19.945 18.4695 19.5941 17.9615 19.0312 17.5089C18.2579 16.8873 17.8548 16.7298 17.0165 16.7213L16.2983 16.7141L16.0913 16.418L15.8844 16.122L16.0656 15.8554C16.3939 15.3722 16.5021 14.9039 16.4527 14.18C16.3756 13.0482 16.0261 12.2712 15.3707 11.7742L15.0656 11.5429L15.1322 11.1508C15.1972 10.7679 15.2059 10.7575 15.5007 10.7104C15.8472 10.655 16.4219 10.3744 16.7155 10.1173C16.9705 9.89393 17.4734 9.20484 17.7065 8.75941C17.8576 8.47054 17.8873 8.29613 17.8943 7.65722L17.9026 6.89828L18.1619 6.72746C18.468 6.52575 18.6352 6.50677 18.7619 6.65936C18.8128 6.72067 19.0486 6.84452 19.2859 6.93443C19.6554 7.07452 19.8217 7.09214 20.442 7.05706C20.8404 7.03448 21.3355 6.96372 21.5421 6.89973C22.022 6.75126 22.6401 6.32313 22.8731 5.97783C23.062 5.69788 23.1183 5.68034 23.5833 5.75728ZM21.3571 9.37696C19.6777 9.70495 18.464 11.4473 18.7506 13.1187C19.047 14.847 20.5114 16.0281 22.2111 15.9095C23.8863 15.7927 25.1606 14.5407 25.3003 12.8744C25.4398 11.2093 24.2618 9.68894 22.5856 9.37109C22.1134 9.28148 21.8391 9.28286 21.3571 9.37696ZM22.9386 10.7512C24.1878 11.3549 24.4746 13.1036 23.4865 14.0917C23.0533 14.5249 22.6876 14.6669 22.0053 14.6669C21.2701 14.6669 20.9242 14.513 20.4509 13.9753C19.9423 13.3975 19.7972 12.7046 20.0324 11.9765C20.2431 11.324 20.8554 10.7559 21.5349 10.5824C21.8913 10.4914 22.5699 10.573 22.9386 10.7512ZM32.9486 18.6645C32.057 18.9528 32.1517 18.8783 28.8687 21.868C28.1557 22.5172 27.4786 23.1336 27.3642 23.2376L27.1562 23.4266L26.7358 23.0289C26.5045 22.8102 26.0834 22.5214 25.7999 22.3871L25.2845 22.143L22.1197 22.0949C20.3791 22.0685 18.8691 22.0219 18.7643 21.9914C18.6594 21.9609 18.2133 21.8229 17.7729 21.6846C16.3753 21.2459 15.8055 21.1561 14.4556 21.1615C13.3948 21.1658 13.1386 21.1921 12.4949 21.3636C11.1553 21.7203 10.6869 22.0243 7.90057 24.3454L5.39169 26.4354L5.09062 26.3292C4.92498 26.2707 4.61369 26.2232 4.39871 26.2237C3.71436 26.225 3.37691 26.4531 2.01536 27.8346C1.33886 28.521 0.722071 29.2028 0.644743 29.3496C0.452568 29.7141 0.451577 30.5832 0.642837 30.951C0.834554 31.3198 8.12592 38.6225 8.50729 38.8278C8.93321 39.057 9.75742 39.0575 10.185 38.8288C10.6099 38.6015 13.0078 36.1676 13.1558 35.8134C13.4021 35.2237 13.2642 34.2837 12.8695 33.8624L12.7016 33.6831L13.2445 33.165C13.8736 32.5646 14.2814 32.3086 15.0483 32.0327L15.5995 31.8344L17.8491 31.8546C20.1015 31.8751 21.3598 31.8121 23.0729 31.5934C24.3948 31.4245 26.2595 31.0465 26.8307 30.8315C27.8963 30.4304 28.0589 30.2883 32.4014 25.9637C34.6799 23.6945 36.6093 21.7125 36.6889 21.559C37.457 20.0799 36.0153 18.5086 33.9049 18.5248C33.6096 18.527 33.1793 18.5899 32.9486 18.6645ZM35.0926 20.0218C35.5755 20.2936 35.7404 20.5333 35.6635 20.8519C35.5867 21.1693 27.9132 28.8335 27.2436 29.2614C26.6484 29.6418 26.0767 29.8355 24.8581 30.0694C22.5002 30.5221 20.4953 30.6826 17.9188 30.6249C15.8943 30.5795 15.3078 30.6352 14.4556 30.9536C13.6455 31.2562 12.8008 31.8166 12.1714 32.4689C12.0056 32.6407 11.8498 32.7813 11.8252 32.7813C11.8007 32.7813 10.5566 31.5331 9.06056 30.0076L6.3406 27.2338L8.56784 25.3756C9.79281 24.3536 11.0015 23.3784 11.2538 23.2085C12.0279 22.6871 13.3233 22.3382 14.4937 22.3357C15.2844 22.334 16.3635 22.5289 17.4199 22.8644C18.7007 23.2711 19.2493 23.3222 22.3553 23.3238L24.917 23.3251L25.3794 23.5561C26.0841 23.9083 26.5379 24.6122 26.5411 25.3582C26.5425 25.7051 26.5149 25.7752 26.3081 25.9492L26.0735 26.1467H20.6126H15.1517L14.9752 26.3125C14.7562 26.5183 14.7422 26.8987 14.9445 27.1486L15.0903 27.3287L20.5631 27.3493C26.6453 27.3721 26.5378 27.3799 27.1291 26.8737C27.6324 26.443 27.7834 26.047 27.7514 25.2415L27.7248 24.5685L30.0445 22.4537C31.3204 21.2907 32.47 20.2594 32.5993 20.1621C33.251 19.6711 34.3586 19.6088 35.0926 20.0218ZM8.41105 31.0854C12.0109 34.6853 12.0534 34.7312 12.0534 35.0348C12.0534 35.3305 12.0068 35.3883 10.8089 36.5783C9.53337 37.8453 9.4244 37.9169 9.05515 37.7302C8.81828 37.6104 1.92362 30.7268 1.79146 30.4782C1.57466 30.0702 1.62636 29.988 2.9182 28.6876C4.10816 27.4897 4.16597 27.4431 4.46163 27.4431C4.76522 27.4431 4.8112 27.4856 8.41105 31.0854Z" fill="#FFD873"/>
</svg>
