<svg width="39" height="36" viewBox="0 0 39 36" fill="none" xmlns="http://www.w3.org/2000/svg">
<path fill-rule="evenodd" clip-rule="evenodd" d="M11.431 0.220888C11.0185 0.350916 10.3149 1.07948 10.1884 1.50764C9.95559 2.29571 10.1197 2.92399 10.7137 3.51799C10.9803 3.78451 11.2649 3.97892 11.4828 4.04331C11.7189 4.11307 12.5882 4.14552 14.2199 4.14552H16.611L16.5742 4.65268C16.5078 5.57255 16.609 5.72443 18.6929 7.82891C21.3239 10.4861 21.8212 10.7799 23.8076 10.8512L24.8793 10.8895V10.2161V9.54256L23.8917 9.50634C22.2621 9.44666 22.2652 9.44851 19.8992 7.10078C18.0057 5.2218 17.903 5.10379 17.903 4.80692C17.903 4.56888 17.9561 4.45222 18.1245 4.31975C18.5665 3.97195 18.6591 4.02969 20.3383 5.70047C21.1978 6.5557 21.9389 7.25543 21.9852 7.25543C22.0315 7.25543 22.2671 7.05522 22.5087 6.81054L22.9481 6.36566L21.2871 4.71841C19.7607 3.20472 19.5891 3.06024 19.1695 2.93593C18.7825 2.82128 18.1898 2.80069 15.2783 2.80069H11.8436L11.6374 2.59434C11.3644 2.32142 11.3644 1.93512 11.6374 1.66221L11.8436 1.45586H16.0789C21.5583 1.45586 20.9969 1.28666 23.4543 3.67878C24.3881 4.5878 25.2118 5.31375 25.5087 5.48942C26.0652 5.81865 26.9882 6.15729 27.3378 6.16057L27.569 6.16276L27.5698 9.04153C27.5706 11.8899 27.5727 11.9248 27.7691 12.3465C27.9965 12.835 28.4431 13.2402 28.9072 13.3794C29.0834 13.4321 29.6107 13.4753 30.0793 13.4753H30.931V13.9834C30.931 14.4108 30.9638 14.5243 31.1374 14.6978L31.3436 14.9041H34.9655H38.5874L38.7937 14.6978L39 14.4915V7.80177V1.112L38.7937 0.905742L38.5874 0.699395H34.9655H31.3436L31.1374 0.905742C30.9646 1.07847 30.931 1.19328 30.931 1.61127V2.11054L29.9368 2.14046C29.0024 2.16853 28.9177 2.1856 28.5311 2.42464C27.9105 2.80842 27.6345 3.31197 27.5861 4.14871C27.5648 4.51677 27.5402 4.81793 27.5314 4.81793C27.3746 4.81793 26.5081 4.49727 26.2241 4.33421C26.0161 4.21477 25.1444 3.43318 24.2871 2.59737C22.6546 1.00576 22.1486 0.631481 21.1859 0.303259C20.6416 0.117673 20.5792 0.115487 16.18 0.121791C13.1835 0.126078 11.6289 0.158522 11.431 0.220888ZM37.6552 7.80177V13.5593H34.9655H32.2759V7.80177V2.04422H34.9655H37.6552V7.80177ZM30.931 7.80177V12.1304H30.0905C28.7961 12.1304 28.9138 12.5593 28.9138 7.84001V3.88571L29.1201 3.67945C29.3103 3.48916 29.3889 3.4731 30.1288 3.4731H30.931V7.80177ZM11.6832 5.83975C8.74121 7.84883 6.75591 10.6447 5.84344 14.0636C5.61466 14.9206 5.37931 16.5 5.37931 17.1778V17.5938H6.03928H6.69934L6.75667 16.7743C6.91334 14.5373 7.65333 12.3708 8.9173 10.4494C9.6077 9.39993 11.2739 7.72847 12.3136 7.04227C12.7296 6.76776 13.08 6.53897 13.0921 6.53401C13.15 6.51023 12.4708 5.41117 12.3976 5.41024C12.3514 5.40965 12.0299 5.60297 11.6832 5.83975ZM15.9698 10.1712C13.7959 10.5347 12.0223 12.6234 12.0223 14.8201C12.0223 15.4099 12.2452 16.3236 12.5311 16.9057C12.836 17.5268 13.6139 18.3914 14.2143 18.7767C15.2266 19.4262 16.5436 19.6631 17.7339 19.4096L18.3633 19.2755L19.2675 20.177L20.1717 21.0784L19.6205 21.6339C19.0471 22.2117 18.9426 22.4792 19.1447 22.8506C19.194 22.9411 19.7041 23.4784 20.2782 24.0448C21.587 25.3357 21.6206 25.3429 22.4565 24.5134L23.0218 23.9526L23.3946 24.2962C23.8698 24.7342 24.2005 24.9035 24.6947 24.9619C25.8748 25.1012 26.8992 24.1862 26.8947 22.9969C26.8914 22.1225 26.7938 21.9954 23.8719 19.0647L21.1903 16.375L21.3117 15.9154C21.5785 14.9058 21.4072 13.6372 20.8642 12.6014C19.9593 10.8749 17.894 9.84952 15.9698 10.1712ZM18.1667 11.773C19.7005 12.528 20.4247 14.187 19.9307 15.8135C19.6207 16.8339 19.4107 16.5293 22.694 19.8212C24.3206 21.4521 25.6358 22.8366 25.6358 22.9181C25.6358 23.1349 25.4104 23.5332 25.2538 23.5933C24.8048 23.7655 24.7623 23.7307 21.7274 20.7037C19.7742 18.7556 18.7197 17.7619 18.6057 17.7619C18.511 17.7619 18.2102 17.8431 17.9372 17.9424C17.292 18.1769 16.2764 18.1948 15.6536 17.9825C14.7874 17.6873 13.9747 16.8978 13.6097 15.9968C13.3483 15.3516 13.3483 14.2983 13.6097 13.6222C13.974 12.68 14.7627 11.9254 15.71 11.6126C16.455 11.3666 17.4767 11.4332 18.1667 11.773ZM16.2215 12.8813C15.3099 13.1586 14.7707 13.8801 14.767 14.8277C14.7611 16.2996 16.3312 17.2637 17.6376 16.5903C18.6295 16.0789 19.0149 14.944 18.5416 13.9277C18.1484 13.0832 17.1049 12.6126 16.2215 12.8813ZM17.2042 14.3304C17.5774 14.6811 17.3929 15.341 16.8909 15.4512C16.3845 15.5624 15.9456 15.0322 16.1452 14.5504C16.1995 14.4192 16.3053 14.276 16.3801 14.2323C16.6172 14.0938 17.0009 14.1394 17.2042 14.3304ZM32.2433 18.4133C32.0861 20.6597 31.3497 22.8074 30.0714 24.7479C29.3836 25.7918 27.7153 27.4663 26.6864 28.1453C26.2704 28.4198 25.92 28.6486 25.9079 28.6536C25.858 28.6741 26.524 29.7765 26.5877 29.7788C26.727 29.7838 27.7988 29.0385 28.5415 28.4202C31.3091 26.1158 33.1122 22.7351 33.533 19.0613C33.5805 18.6471 33.6196 18.1474 33.62 17.951L33.6207 17.5938H32.9607H32.3007L32.2433 18.4133ZM0.206347 20.4898L0 20.6961V27.3858V34.0756L0.206347 34.2818L0.41261 34.4882H4.03448H7.65636L7.86262 34.2818C8.03543 34.1091 8.06896 33.9943 8.06896 33.5763V33.077L9.06321 33.0471C9.99762 33.0191 10.0823 33.002 10.4689 32.7629C11.0894 32.3792 11.3655 31.8756 11.4139 31.0389C11.4352 30.6708 11.4797 30.3697 11.5127 30.3697C11.6666 30.3697 12.573 30.7223 12.8474 30.8889C13.0161 30.9914 13.8556 31.758 14.7129 32.5926C16.3448 34.1811 16.853 34.5566 17.8141 34.8843C18.3568 35.0693 18.4333 35.0723 22.7841 35.0744C27.8511 35.0769 27.734 35.0909 28.3506 34.4051C29.1043 33.5669 29.1043 32.5517 28.3506 31.7135C27.7732 31.0713 27.6186 31.0421 24.7973 31.0421H22.3918L22.4266 30.4956C22.485 29.5779 22.3314 29.3596 20.027 27.0842C17.2372 24.3298 17.2174 24.3212 13.6374 24.3192L11.431 24.3179L11.4302 23.7926C11.4288 22.9028 10.9514 22.143 10.194 21.8256C10.0224 21.7538 9.58442 21.7123 8.99622 21.7123H8.06896V21.2042C8.06896 20.7767 8.03619 20.6633 7.86262 20.4898L7.65636 20.2834H4.03448H0.41261L0.206347 20.4898ZM6.72414 27.3858V33.1434H4.03448H1.34483V27.3858V21.6283H4.03448H6.72414V27.3858ZM21.8315 23.2014L21.6023 23.4306L21.1404 22.9744L20.6784 22.5182L20.9056 22.2812L21.1327 22.0441L21.5968 22.508L22.0607 22.9721L21.8315 23.2014ZM9.89171 23.2399L10.0862 23.4227V27.3623V31.3019L9.87986 31.5081C9.68965 31.6984 9.61106 31.7145 8.87124 31.7145H8.06896V27.3858V23.0572H8.88309C9.60325 23.0572 9.71957 23.0783 9.89171 23.2399ZM16.6002 25.9056C17.0536 26.0844 17.306 26.3049 19.1008 28.0904C20.9833 29.9633 21.097 30.094 21.097 30.385C21.097 30.6184 21.0429 30.7362 20.8755 30.8678C20.4335 31.2156 20.3409 31.1579 18.6617 29.4871C17.8022 28.6319 17.0611 27.9322 17.0148 27.9322C16.9685 27.9322 16.7334 28.1319 16.4922 28.3762L16.0537 28.8202L17.6718 30.4255C18.5617 31.3085 19.4223 32.1016 19.5841 32.1879C19.8546 32.3323 20.1742 32.3482 23.5631 32.3869L27.2478 32.4289L27.4084 32.6274C27.632 32.9036 27.6131 33.275 27.3626 33.5254L27.1564 33.7317H22.9652C18.4093 33.7317 18.3098 33.723 17.4828 33.248C17.2747 33.1286 16.403 32.347 15.5457 31.5112C14.6082 30.5971 13.7894 29.8746 13.4913 29.6982C12.9348 29.3689 12.0118 29.0303 11.6622 29.027L11.431 29.0248V27.3389V25.653L13.7635 25.6799C15.9845 25.7055 16.12 25.7163 16.6002 25.9056Z" fill="#FFD873"/>
</svg>
