<svg width="16" height="12" viewBox="0 0 16 12" fill="none" xmlns="http://www.w3.org/2000/svg">
<path fill-rule="evenodd" clip-rule="evenodd" d="M4.5396 0.444845C4.18897 0.577583 3.96444 0.9315 4.00624 1.28557C4.03702 1.54636 4.20314 1.78265 4.44925 1.9157L4.57439 1.98334H10.0022H15.43L15.5551 1.9157C15.8437 1.75965 15.9915 1.51764 15.9913 1.20123C15.9912 0.875909 15.8349 0.620224 15.5495 0.478475C15.4337 0.420944 15.2638 0.418973 10.0335 0.41356C5.95558 0.409337 4.61315 0.41697 4.5396 0.444845ZM0.427239 5.30727C-0.142413 5.59618 -0.142413 6.41051 0.427239 6.69942L0.596893 6.78545H8H15.4031L15.5728 6.69942C16.1424 6.41051 16.1424 5.59618 15.5728 5.30727L15.4031 5.22124H8H0.596893L0.427239 5.30727ZM7.74973 10.0555C7.42994 10.1554 7.21877 10.455 7.21821 10.8095C7.21771 11.1205 7.36794 11.3749 7.63726 11.519L7.76537 11.5876H11.5977C15.298 11.5876 15.4341 11.5855 15.5495 11.5282C15.8349 11.3865 15.9912 11.1308 15.9913 10.8055C15.9915 10.4891 15.8437 10.247 15.5551 10.091L15.43 10.0234L11.6602 10.0175C8.49764 10.0125 7.86782 10.0186 7.74973 10.0555Z" fill="white"/>
</svg>
