<svg width="20" height="20" viewBox="0 0 20 20" fill="none" xmlns="http://www.w3.org/2000/svg">
<path fill-rule="evenodd" clip-rule="evenodd" d="M0.352032 0.062826C0.136529 0.171953 0.0221182 0.362216 0.00242378 0.644314C-0.018799 0.948027 0.0985815 1.14663 0.384871 1.29126C0.564435 1.38196 0.638191 1.38956 1.34523 1.38995C2.05558 1.39034 2.12689 1.39777 2.32942 1.49227C2.59388 1.61567 2.83825 1.87624 2.93323 2.13607C2.97192 2.24183 3.27908 4.25416 3.61585 6.60788C3.95266 8.96161 4.26511 11.0151 4.31022 11.1712C4.77821 12.7904 6.05831 13.9792 7.70063 14.32C8.06452 14.3955 8.34273 14.4015 11.4561 14.4015C15.1892 14.4015 15.1819 14.402 15.9543 14.1031C16.9264 13.7269 17.8026 12.9247 18.2839 11.97C18.5407 11.4607 18.636 11.0562 19.1255 8.39654C19.6744 5.41478 19.7 5.16958 19.5232 4.59914C19.2599 3.74988 18.5575 3.07743 17.7009 2.85428C17.4741 2.79524 16.7419 2.7869 11.7701 2.7869C6.62735 2.7869 6.08416 2.7935 5.9487 2.85778C5.72905 2.96201 5.61197 3.1528 5.59197 3.43909C5.57075 3.7428 5.68813 3.94141 5.97442 4.08603L6.16892 4.18429L11.7601 4.18473L17.3513 4.18516L17.5721 4.28796C17.9482 4.46302 18.2465 4.91923 18.2465 5.31897C18.2465 5.52962 17.2861 10.7091 17.1974 10.9767C16.9748 11.6487 16.4001 12.3214 15.77 12.6477C15.0605 13.015 15.1775 13.0053 11.4561 13.0053C7.77639 13.0053 7.86168 13.0118 7.20753 12.6824C6.44678 12.2993 5.8121 11.5062 5.63119 10.7127C5.60381 10.5926 5.30734 8.57842 4.97241 6.2367C4.56542 3.39136 4.33266 1.88891 4.27074 1.70729C4.02812 0.995625 3.41908 0.384269 2.68851 0.119027C2.44362 0.0301184 2.32182 0.0188956 1.45606 0.00531478C0.6271 -0.00769839 0.475701 0.000205556 0.352032 0.062826ZM7.56041 14.9489C6.67067 15.1422 5.88071 15.9175 5.64918 16.8245C5.56525 17.1533 5.56446 17.7581 5.64756 18.0708C5.84005 18.795 6.34499 19.4166 6.9915 19.7253C7.41744 19.9286 7.69404 19.9922 8.15212 19.9922C8.84173 19.9922 9.39915 19.7574 9.91077 19.2512C10.9405 18.2326 10.9493 16.6573 9.93112 15.6459C9.2957 15.0147 8.42945 14.7601 7.56041 14.9489ZM14.0195 14.9684C13.5517 15.0953 13.2008 15.2995 12.8533 15.647C11.8233 16.677 11.8419 18.2855 12.8954 19.2862C13.5201 19.8796 14.3547 20.1182 15.1985 19.9446C15.9154 19.7972 16.5974 19.2621 16.9252 18.59C17.1344 18.1612 17.1985 17.8874 17.1985 17.4228C17.1985 16.766 16.9683 16.1927 16.5093 15.7061C16.0161 15.1833 15.4741 14.9349 14.7531 14.9012C14.4301 14.8862 14.2677 14.9011 14.0195 14.9684ZM8.61959 16.3934C9.32051 16.726 9.50326 17.6289 8.98815 18.2141C8.74793 18.487 8.44841 18.6091 8.07509 18.5863C7.74107 18.5659 7.53032 18.4755 7.31491 18.26C7.09945 18.0446 7.00901 17.8339 6.98862 17.4999C6.97473 17.272 6.99132 17.1658 7.06901 16.9851C7.18307 16.72 7.46845 16.4482 7.73661 16.3492C7.96819 16.2638 8.39103 16.285 8.61959 16.3934ZM15.024 16.3483C15.7917 16.6099 16.0552 17.5833 15.5222 18.1889C15.0496 18.7257 14.2342 18.7317 13.7805 18.2016C13.0181 17.311 13.9172 15.9711 15.024 16.3483Z" fill="white"/>
</svg>
