<svg width="20" height="20" viewBox="0 0 20 20" fill="none" xmlns="http://www.w3.org/2000/svg">
<path fill-rule="evenodd" clip-rule="evenodd" d="M0.541608 0.062826C0.326104 0.171953 0.211693 0.362216 0.191999 0.644314C0.170776 0.948027 0.288157 1.14663 0.574446 1.29126C0.754011 1.38196 0.827767 1.38956 1.5348 1.38995C2.24515 1.39034 2.31646 1.39777 2.519 1.49227C2.78345 1.61567 3.02782 1.87624 3.1228 2.13607C3.16149 2.24183 3.46865 4.25416 3.80542 6.60788C4.14224 8.96161 4.45468 11.0151 4.49979 11.1712C4.96779 12.7904 6.24788 13.9792 7.8902 14.32C8.25409 14.3955 8.5323 14.4015 11.6457 14.4015C15.3788 14.4015 15.3715 14.402 16.1439 14.1031C17.116 13.7269 17.9921 12.9247 18.4735 11.97C18.7303 11.4607 18.8256 11.0562 19.3151 8.39654C19.8639 5.41478 19.8896 5.16958 19.7128 4.59914C19.4494 3.74988 18.7471 3.07743 17.8905 2.85428C17.6637 2.79524 16.9315 2.7869 11.9597 2.7869C6.81692 2.7869 6.27373 2.7935 6.13827 2.85778C5.91862 2.96201 5.80155 3.1528 5.78155 3.43909C5.76032 3.7428 5.87771 3.94141 6.164 4.08603L6.35849 4.18429L11.9497 4.18473L17.5409 4.18516L17.7617 4.28796C18.1377 4.46302 18.4361 4.91923 18.4361 5.31897C18.4361 5.52962 17.4757 10.7091 17.387 10.9767C17.1644 11.6487 16.5897 12.3214 15.9595 12.6477C15.2501 13.015 15.3671 13.0053 11.6457 13.0053C7.96597 13.0053 8.05125 13.0118 7.3971 12.6824C6.63636 12.2993 6.00168 11.5062 5.82076 10.7127C5.79338 10.5926 5.49692 8.57842 5.16198 6.2367C4.75499 3.39136 4.52224 1.88891 4.46032 1.70729C4.2177 0.995625 3.60865 0.384269 2.87808 0.119027C2.63319 0.0301184 2.5114 0.0188956 1.64563 0.00531478C0.816675 -0.00769839 0.665276 0.000205556 0.541608 0.062826ZM7.74999 14.9489C6.86024 15.1422 6.07028 15.9175 5.83875 16.8245C5.75482 17.1533 5.75404 17.7581 5.83714 18.0708C6.02963 18.795 6.53456 19.4166 7.18107 19.7253C7.60702 19.9286 7.88361 19.9922 8.34169 19.9922C9.0313 19.9922 9.58873 19.7574 10.1003 19.2512C11.13 18.2326 11.1389 16.6573 10.1207 15.6459C9.48528 15.0147 8.61903 14.7601 7.74999 14.9489ZM14.2091 14.9684C13.7413 15.0953 13.3904 15.2995 13.0429 15.647C12.0129 16.677 12.0315 18.2855 13.0849 19.2862C13.7097 19.8796 14.5443 20.1182 15.3881 19.9446C16.105 19.7972 16.787 19.2621 17.1148 18.59C17.324 18.1612 17.3881 17.8874 17.3881 17.4228C17.3881 16.766 17.1579 16.1927 16.6989 15.7061C16.2057 15.1833 15.6637 14.9349 14.9426 14.9012C14.6196 14.8862 14.4573 14.9011 14.2091 14.9684ZM8.80916 16.3934C9.51008 16.726 9.69283 17.6289 9.17772 18.2141C8.9375 18.487 8.63798 18.6091 8.26466 18.5863C7.93064 18.5659 7.7199 18.4755 7.50448 18.26C7.28902 18.0446 7.19859 17.8339 7.17819 17.4999C7.16431 17.272 7.1809 17.1658 7.25859 16.9851C7.37265 16.72 7.65802 16.4482 7.92619 16.3492C8.15776 16.2638 8.5806 16.285 8.80916 16.3934ZM15.2136 16.3483C15.9813 16.6099 16.2447 17.5833 15.7117 18.1889C15.2392 18.7257 14.4238 18.7317 13.9701 18.2016C13.2077 17.311 14.1067 15.9711 15.2136 16.3483Z" fill="white"/>
</svg>
