<svg width="10" height="8" viewBox="0 0 10 8" fill="none" xmlns="http://www.w3.org/2000/svg">
<path fill-rule="evenodd" clip-rule="evenodd" d="M9.10205 0.789309C8.97894 0.82778 8.81449 0.986134 5.54851 4.21099C4.46328 5.28256 3.56003 6.16468 3.54129 6.17126C3.52255 6.1778 2.95225 5.62966 2.27398 4.95315C1.59568 4.27666 0.994733 3.70021 0.938543 3.67217C0.798483 3.60229 0.538923 3.60701 0.392925 3.6821C0.0537739 3.85658 -0.0960873 4.263 0.0646926 4.57227C0.0985663 4.6374 0.82048 5.3823 1.66898 6.22757C2.90768 7.46161 3.23617 7.77225 3.336 7.80396C3.48424 7.85102 3.75446 7.82921 3.90438 7.75808C4.06654 7.68111 9.8859 1.84536 9.94675 1.69866C10.1688 1.16336 9.65945 0.614993 9.10205 0.789309Z" fill="white"/>
</svg>
