<svg width="12" height="14" viewBox="0 0 12 14" fill="none" xmlns="http://www.w3.org/2000/svg">
<path fill-rule="evenodd" clip-rule="evenodd" d="M3.90367 0.0420474C3.73749 0.0901901 3.51757 0.338693 3.51161 0.485068C3.49897 0.794889 3.55747 0.934801 3.75315 1.06307C3.85643 1.13077 4.09388 1.13769 6.97569 1.15687C9.8575 1.17605 10.0949 1.18297 10.1982 1.25067C10.4702 1.42895 10.4538 1.22788 10.4766 4.65778C10.4959 7.56636 10.5022 7.77625 10.5721 7.88289C10.7447 8.14614 11.1157 8.23605 11.3757 8.07749C11.6524 7.90883 11.6398 8.0857 11.6273 4.5233L11.616 1.30188L11.4837 1.02259C11.2453 0.519456 10.7558 0.143139 10.2081 0.0418815C9.90539 -0.0140503 4.09686 -0.0139258 3.90367 0.0420474ZM1.21625 2.4329C0.614174 2.64109 0.237028 3.03709 0.0596212 3.64737C-0.00041218 3.85378 -0.00608865 4.3282 0.0040205 8.26567L0.0152898 12.654L0.108219 12.8818C0.310112 13.377 0.728523 13.7638 1.22955 13.9186C1.48402 13.9971 1.6231 14.0005 4.64955 14C7.18951 13.9996 7.8459 13.9884 8.01767 13.9427C8.65028 13.7742 9.13664 13.2668 9.2727 12.6332C9.30908 12.4639 9.31832 11.2823 9.30875 8.03441L9.29582 3.66344L9.16469 3.38668C8.93935 2.91102 8.54327 2.56067 8.07642 2.42416C7.87921 2.36649 7.4543 2.35853 4.63766 2.35974C1.6983 2.36098 1.40621 2.36719 1.21625 2.4329ZM7.83948 3.58195C7.91128 3.61687 8.00732 3.69613 8.05289 3.75803C8.1343 3.86865 8.13592 3.94426 8.14628 8.13798C8.15663 12.3386 8.15552 12.4075 8.07415 12.5404C8.0287 12.6147 7.93075 12.7125 7.85647 12.7577C7.72497 12.8379 7.64173 12.8401 4.65133 12.8402L1.58121 12.8404L1.44043 12.7463C1.13566 12.5428 1.15476 12.8491 1.15472 8.16699C1.15464 4.64316 1.16396 3.95213 1.21285 3.85817C1.27703 3.73483 1.4309 3.58302 1.52752 3.54768C1.5617 3.53521 2.9665 3.52349 4.6493 3.52171C7.31844 3.51885 7.72559 3.52655 7.83948 3.58195Z" fill="#84A3C9"/>
</svg>
