<svg width="16" height="14" viewBox="0 0 16 14" fill="none" xmlns="http://www.w3.org/2000/svg">
<path fill-rule="evenodd" clip-rule="evenodd" d="M2.33997 0.0536404C1.35743 0.236443 0.523192 0.933003 0.188881 1.8497C-0.00349676 2.37731 4.31819e-06 2.28475 4.31819e-06 6.82929C4.31819e-06 9.74588 0.0122578 11.1229 0.0397658 11.3007C0.223855 12.4905 1.16541 13.452 2.35783 13.6679C2.71215 13.7321 13.1768 13.7425 13.5864 13.6792C14.8093 13.4899 15.7927 12.4952 15.9678 11.2701C15.9969 11.0668 16.0052 9.76189 15.997 6.68117C15.9847 1.99924 15.9988 2.33445 15.7909 1.77896C15.687 1.50099 15.4104 1.08705 15.1643 0.840976C14.7536 0.430214 14.1603 0.129198 13.5864 0.0404222C13.1883 -0.0212028 2.67571 -0.00884199 2.33997 0.0536404ZM13.592 1.19862C14.1521 1.34451 14.6027 1.76046 14.7899 2.30444C14.8292 2.4189 14.8615 2.52675 14.8615 2.54408C14.8615 2.57677 9.12473 6.39705 8.80138 6.57971C8.43431 6.78702 7.92416 6.83164 7.46832 6.69628C7.33238 6.65591 6.4557 6.09018 4.22652 4.60435L1.17099 2.56776L1.19367 2.45419C1.27209 2.06147 1.65395 1.56486 2.03281 1.36295C2.45836 1.13613 2.10983 1.14878 8.00376 1.14621C12.7254 1.14414 13.4074 1.15053 13.592 1.19862ZM3.91185 5.7608C5.3462 6.71372 6.61621 7.54188 6.7341 7.60119C7.10714 7.78881 7.41098 7.86562 7.8615 7.8862C8.39076 7.91035 8.75762 7.84051 9.1991 7.63148C9.40034 7.53617 10.5162 6.81553 12.1821 5.70503L14.8436 3.9308L14.853 7.47626C14.8594 9.92133 14.8503 11.0801 14.8235 11.2097C14.728 11.6732 14.3552 12.1651 13.9402 12.3754C13.525 12.5858 13.8239 12.5757 8.00233 12.5757C2.12148 12.5757 2.46779 12.5885 2.0317 12.356C1.78141 12.2226 1.47115 11.9064 1.34354 11.6545C1.13719 11.2473 1.14319 11.3723 1.14319 7.49123V3.92216L1.22357 3.97517C1.26777 4.00436 2.47751 4.80788 3.91185 5.7608Z" fill="#CECED3"/>
</svg>
