<svg width="64" height="64" viewBox="0 0 64 64" fill="none" xmlns="http://www.w3.org/2000/svg">
<path fill-rule="evenodd" clip-rule="evenodd" d="M14.7581 31.039C14.7581 35.2802 15.2301 38.431 16.9258 41.8538C18.3663 44.7614 19.3338 46.5342 21.5737 48.7575C25.6159 52.7701 31.5701 56.0249 37.4367 56.0249C44.1832 56.0249 47.2305 55.0886 52.6243 51.6885C54.8173 50.3061 56.9231 48.0192 58.3817 45.8899C63.3285 38.6679 64.3452 29.5386 60.3576 21.6684C57.3591 15.7507 54.6248 13.1828 48.6987 10.2144C39.8053 5.75945 28.6327 8.21304 21.8148 15.0022C18.0609 18.7405 14.7581 25.3597 14.7581 31.039Z" fill="#376091"/>
<path fill-rule="evenodd" clip-rule="evenodd" d="M1.48833 30.5586C1.48833 34.2154 1.4647 35.9856 2.45052 39.691C2.96917 41.6409 4.63541 45.607 5.66493 47.3012C7.57245 50.4402 9.4726 53.0419 12.3077 55.3415C17.113 59.2393 24.1227 62.5117 30.6811 62.5117C34.7226 62.5117 38.0487 62.4426 41.9219 60.9721C43.6597 60.3123 47.4281 58.8827 48.2932 57.7068C46.8034 57.8301 45.6926 58.4496 43.9677 58.6847C37.6709 59.5432 34.2367 59.1694 28.3009 56.9536C22.9929 54.9722 17.4677 49.2868 14.8356 44.4155C10.4751 36.345 11.2426 23.8687 16.928 16.3828C19.0704 13.5619 19.4921 13.4688 21.5698 11.3951C24.9647 8.00626 32.2052 5.0921 37.4364 5.0921C40.1339 5.0921 42.3319 4.9629 44.9199 5.56826C45.5094 5.70624 46.3589 5.86581 46.8775 6.02141C47.6052 6.23967 47.9294 6.4635 48.7758 6.53359C48.5736 6.35867 48.3775 6.18418 48.1038 6.0015C47.8231 5.81402 47.609 5.70869 47.3327 5.5681C41.5528 2.62644 38.1337 1.4884 31.1636 1.4884C27.0311 1.4884 22.0955 2.98335 19.3408 4.37043C12.362 7.88456 7.74522 12.0507 4.54487 18.9471C2.99263 22.292 1.48833 26.6278 1.48833 30.5586Z" fill="black"/>
<path fill-rule="evenodd" clip-rule="evenodd" d="M30.9603 42.1208C32.1274 42.7375 45.4977 42.5659 47.1475 42.1509C48.3839 36.5146 46.5795 38.3291 37.203 38.1936L36.0793 38.1658L36.0371 33.4337C42.3818 32.876 44.9389 34.7912 44.9389 31.5196C44.9389 28.1562 44.6643 29.0093 36.9541 29.1155L35.9888 29.1172L35.9484 24.9728C38.2472 24.9615 45.4769 25.4492 46.8615 24.5521C47.1503 23.6525 47.2028 22.0613 46.9024 21.1886C46.2192 20.2469 34.4803 20.7119 32.3576 20.748C29.3432 20.7992 30.1071 20.6773 30.2009 28.8766L30.5689 41.5172C30.7558 42.0731 30.6676 41.8239 30.9603 42.1208Z" fill="white"/>
</svg>
