<svg width="20" height="20" viewBox="0 0 20 20" fill="none" xmlns="http://www.w3.org/2000/svg">
<path d="M3.125 15.7919C2.94444 15.7919 2.79514 15.7329 2.67708 15.6148C2.55903 15.4968 2.5 15.3475 2.5 15.1669C2.5 14.9864 2.55903 14.837 2.67708 14.719C2.79514 14.6009 2.94444 14.5419 3.125 14.5419H7.02083C7.20139 14.5419 7.35069 14.6009 7.46875 14.719C7.58681 14.837 7.64583 14.9864 7.64583 15.1669C7.64583 15.3475 7.58681 15.4968 7.46875 15.6148C7.35069 15.7329 7.20139 15.7919 7.02083 15.7919H3.125ZM3.125 5.45858C2.94444 5.45858 2.79514 5.39955 2.67708 5.28149C2.55903 5.16344 2.5 5.01413 2.5 4.83358C2.5 4.65302 2.55903 4.50372 2.67708 4.38566C2.79514 4.26761 2.94444 4.20858 3.125 4.20858H10.4792C10.6597 4.20858 10.809 4.26761 10.9271 4.38566C11.0451 4.50372 11.1042 4.65302 11.1042 4.83358C11.1042 5.01413 11.0451 5.16344 10.9271 5.28149C10.809 5.39955 10.6597 5.45858 10.4792 5.45858H3.125ZM9.52083 17.5002C9.34028 17.5002 9.19097 17.4412 9.07292 17.3232C8.95486 17.2051 8.89583 17.0558 8.89583 16.8752V13.4377C8.89583 13.2572 8.95486 13.1079 9.07292 12.9898C9.19097 12.8718 9.34028 12.8127 9.52083 12.8127C9.70139 12.8127 9.85069 12.8718 9.96875 12.9898C10.0868 13.1079 10.1458 13.2572 10.1458 13.4377V14.5419H16.875C17.0556 14.5419 17.2049 14.6009 17.3229 14.719C17.441 14.837 17.5 14.9864 17.5 15.1669C17.5 15.3475 17.441 15.4968 17.3229 15.6148C17.2049 15.7329 17.0556 15.7919 16.875 15.7919H10.1458V16.8752C10.1458 17.0558 10.0868 17.2051 9.96875 17.3232C9.85069 17.4412 9.70139 17.5002 9.52083 17.5002ZM7.02083 12.3336C6.84028 12.3336 6.69097 12.2745 6.57292 12.1565C6.45486 12.0384 6.39583 11.8891 6.39583 11.7086V10.6252H3.125C2.94444 10.6252 2.79514 10.5662 2.67708 10.4482C2.55903 10.3301 2.5 10.1808 2.5 10.0002C2.5 9.81969 2.55903 9.67038 2.67708 9.55233C2.79514 9.43427 2.94444 9.37524 3.125 9.37524H6.39583V8.25024C6.39583 8.06969 6.45486 7.92038 6.57292 7.80233C6.69097 7.68427 6.84028 7.62524 7.02083 7.62524C7.20139 7.62524 7.35069 7.68427 7.46875 7.80233C7.58681 7.92038 7.64583 8.06969 7.64583 8.25024V11.7086C7.64583 11.8891 7.58681 12.0384 7.46875 12.1565C7.35069 12.2745 7.20139 12.3336 7.02083 12.3336ZM9.52083 10.6252C9.34028 10.6252 9.19097 10.5662 9.07292 10.4482C8.95486 10.3301 8.89583 10.1808 8.89583 10.0002C8.89583 9.81969 8.95486 9.67038 9.07292 9.55233C9.19097 9.43427 9.34028 9.37524 9.52083 9.37524H16.875C17.0556 9.37524 17.2049 9.43427 17.3229 9.55233C17.441 9.67038 17.5 9.81969 17.5 10.0002C17.5 10.1808 17.441 10.3301 17.3229 10.4482C17.2049 10.5662 17.0556 10.6252 16.875 10.6252H9.52083ZM12.9792 7.18774C12.7986 7.18774 12.6493 7.12872 12.5313 7.01066C12.4132 6.89261 12.3542 6.7433 12.3542 6.56274V3.12524C12.3542 2.94469 12.4132 2.79538 12.5313 2.67733C12.6493 2.55927 12.7986 2.50024 12.9792 2.50024C13.1597 2.50024 13.309 2.55927 13.4271 2.67733C13.5451 2.79538 13.6042 2.94469 13.6042 3.12524V4.20858H16.875C17.0556 4.20858 17.2049 4.26761 17.3229 4.38566C17.441 4.50372 17.5 4.65302 17.5 4.83358C17.5 5.01413 17.441 5.16344 17.3229 5.28149C17.2049 5.39955 17.0556 5.45858 16.875 5.45858H13.6042V6.56274C13.6042 6.7433 13.5451 6.89261 13.4271 7.01066C13.309 7.12872 13.1597 7.18774 12.9792 7.18774Z" fill="#01003D"/>
</svg>
