<svg width="171" height="60" viewBox="0 0 171 60" fill="none" xmlns="http://www.w3.org/2000/svg">
<path d="M51.096 37.7C51.672 37.7 52.152 37.886 52.536 38.258C52.92 38.624 53.112 39.083 53.112 39.635C53.112 40.187 52.92 40.649 52.536 41.021C52.152 41.387 51.672 41.57 51.096 41.57H49.386V44H48.936V37.7H51.096ZM51.078 41.129C51.528 41.129 51.903 40.988 52.203 40.706C52.503 40.418 52.653 40.061 52.653 39.635C52.653 39.209 52.503 38.855 52.203 38.573C51.903 38.285 51.528 38.141 51.078 38.141H49.386V41.129H51.078ZM58.4643 39.14H58.8243V44H58.4463L58.4013 42.947C58.1853 43.307 57.8913 43.589 57.5193 43.793C57.1533 43.997 56.7423 44.099 56.2863 44.099C55.5723 44.099 54.9783 43.859 54.5043 43.379C54.0303 42.893 53.7933 42.29 53.7933 41.57C53.7933 40.85 54.0303 40.25 54.5043 39.77C54.9783 39.284 55.5723 39.041 56.2863 39.041C56.7423 39.041 57.1533 39.146 57.5193 39.356C57.8913 39.56 58.1853 39.842 58.4013 40.202L58.4643 39.14ZM56.3133 43.667C56.7033 43.667 57.0543 43.577 57.3663 43.397C57.6843 43.217 57.9303 42.968 58.1043 42.65C58.2843 42.326 58.3743 41.966 58.3743 41.57C58.3743 40.964 58.1793 40.463 57.7893 40.067C57.3993 39.671 56.9073 39.473 56.3133 39.473C55.7193 39.473 55.2243 39.674 54.8283 40.076C54.4383 40.472 54.2433 40.97 54.2433 41.57C54.2433 42.17 54.4383 42.671 54.8283 43.073C55.2243 43.469 55.7193 43.667 56.3133 43.667ZM62.7139 41.435C62.9539 41.537 63.1459 41.696 63.2899 41.912C63.4339 42.122 63.5059 42.368 63.5059 42.65C63.5059 43.07 63.3379 43.418 63.0019 43.694C62.6659 43.964 62.2339 44.099 61.7059 44.099C61.2499 44.099 60.8599 43.982 60.5359 43.748C60.2179 43.514 60.0259 43.205 59.9599 42.821H60.3739C60.4399 43.079 60.5929 43.286 60.8329 43.442C61.0729 43.598 61.3639 43.676 61.7059 43.676C62.1079 43.676 62.4349 43.577 62.6869 43.379C62.9449 43.181 63.0739 42.929 63.0739 42.623C63.0739 42.347 62.9719 42.113 62.7679 41.921C62.5639 41.729 62.3089 41.633 62.0029 41.633H61.1659V41.264H61.9939C62.2879 41.264 62.5249 41.183 62.7049 41.021C62.8849 40.859 62.9749 40.652 62.9749 40.4C62.9749 40.118 62.8579 39.887 62.6239 39.707C62.3899 39.527 62.0929 39.437 61.7329 39.437C61.4209 39.437 61.1539 39.512 60.9319 39.662C60.7099 39.806 60.5689 40.001 60.5089 40.247H60.0949C60.1549 39.887 60.3349 39.596 60.6349 39.374C60.9409 39.152 61.3099 39.041 61.7419 39.041C62.2159 39.041 62.6089 39.167 62.9209 39.419C63.2389 39.671 63.3979 39.989 63.3979 40.373C63.3979 40.613 63.3349 40.826 63.2089 41.012C63.0889 41.198 62.9239 41.339 62.7139 41.435ZM67.3799 39.041C68.0939 39.041 68.6849 39.281 69.1529 39.761C69.6209 40.241 69.8549 40.844 69.8549 41.57C69.8549 42.296 69.6209 42.899 69.1529 43.379C68.6849 43.859 68.0939 44.099 67.3799 44.099C66.9359 44.099 66.5309 44 66.1649 43.802C65.8049 43.604 65.5139 43.331 65.2919 42.983V45.719H64.8509V39.14H65.1749L65.2649 40.202C65.4869 39.842 65.7809 39.56 66.1469 39.356C66.5189 39.146 66.9299 39.041 67.3799 39.041ZM67.3439 43.667C67.9439 43.667 68.4389 43.469 68.8289 43.073C69.2189 42.677 69.4139 42.176 69.4139 41.57C69.4139 40.964 69.2189 40.463 68.8289 40.067C68.4389 39.671 67.9439 39.473 67.3439 39.473C66.7559 39.473 66.2639 39.674 65.8679 40.076C65.4719 40.472 65.2739 40.97 65.2739 41.57C65.2739 42.17 65.4719 42.671 65.8679 43.073C66.2639 43.469 66.7559 43.667 67.3439 43.667ZM75.3921 39.14H75.7521V44H75.3741L75.3291 42.947C75.1131 43.307 74.8191 43.589 74.4471 43.793C74.0811 43.997 73.6701 44.099 73.2141 44.099C72.5001 44.099 71.9061 43.859 71.4321 43.379C70.9581 42.893 70.7211 42.29 70.7211 41.57C70.7211 40.85 70.9581 40.25 71.4321 39.77C71.9061 39.284 72.5001 39.041 73.2141 39.041C73.6701 39.041 74.0811 39.146 74.4471 39.356C74.8191 39.56 75.1131 39.842 75.3291 40.202L75.3921 39.14ZM73.2411 43.667C73.6311 43.667 73.9821 43.577 74.2941 43.397C74.6121 43.217 74.8581 42.968 75.0321 42.65C75.2121 42.326 75.3021 41.966 75.3021 41.57C75.3021 40.964 75.1071 40.463 74.7171 40.067C74.3271 39.671 73.8351 39.473 73.2411 39.473C72.6471 39.473 72.1521 39.674 71.7561 40.076C71.3661 40.472 71.1711 40.97 71.1711 41.57C71.1711 42.17 71.3661 42.671 71.7561 43.073C72.1521 43.469 72.6471 43.667 73.2411 43.667ZM79.6956 39.401C80.1456 39.401 80.5506 39.503 80.9106 39.707C81.2706 39.905 81.5526 40.184 81.7566 40.544C81.9606 40.898 82.0626 41.294 82.0626 41.732C82.0626 42.416 81.8316 42.983 81.3696 43.433C80.9136 43.877 80.3376 44.099 79.6416 44.099C78.9216 44.099 78.3336 43.868 77.8776 43.406C77.4276 42.938 77.2026 42.335 77.2026 41.597C77.2026 40.289 77.4336 39.314 77.8956 38.672C78.3636 38.024 79.1706 37.565 80.3166 37.295L81.6396 36.98V37.421L80.3346 37.727C79.5186 37.913 78.9006 38.219 78.4806 38.645C78.0666 39.071 77.8086 39.665 77.7066 40.427C77.9226 40.097 78.1986 39.845 78.5346 39.671C78.8766 39.491 79.2636 39.401 79.6956 39.401ZM79.6416 43.667C80.2056 43.667 80.6736 43.484 81.0456 43.118C81.4236 42.746 81.6126 42.284 81.6126 41.732C81.6126 41.18 81.4236 40.721 81.0456 40.355C80.6676 39.983 80.1996 39.797 79.6416 39.797C79.0716 39.797 78.5976 39.983 78.2196 40.355C77.8476 40.721 77.6616 41.18 77.6616 41.732C77.6616 42.284 77.8506 42.746 78.2286 43.118C78.6066 43.484 79.0776 43.667 79.6416 43.667ZM85.4849 44.099C84.7589 44.099 84.1529 43.859 83.6669 43.379C83.1809 42.899 82.9379 42.296 82.9379 41.57C82.9379 40.844 83.1779 40.241 83.6579 39.761C84.1439 39.281 84.7499 39.041 85.4759 39.041C86.2079 39.041 86.8139 39.281 87.2939 39.761C87.7799 40.241 88.0229 40.844 88.0229 41.57C88.0229 42.296 87.7799 42.899 87.2939 43.379C86.8139 43.859 86.2109 44.099 85.4849 44.099ZM85.4849 43.667C85.8809 43.667 86.2379 43.577 86.5559 43.397C86.8739 43.217 87.1229 42.968 87.3029 42.65C87.4829 42.326 87.5729 41.966 87.5729 41.57C87.5729 40.964 87.3749 40.463 86.9789 40.067C86.5829 39.671 86.0849 39.473 85.4849 39.473C85.0829 39.473 84.7229 39.563 84.4049 39.743C84.0869 39.923 83.8379 40.175 83.6579 40.499C83.4779 40.817 83.3879 41.174 83.3879 41.57C83.3879 42.17 83.5859 42.671 83.9819 43.073C84.3779 43.469 84.8789 43.667 85.4849 43.667ZM92.7267 39.14V39.545H90.7827V44H90.3507V39.545H88.4157V39.14H92.7267ZM96.954 44L95.01 41.669H94.164V44H93.723V39.14H94.164V41.255H95.019L96.792 39.14H97.332L95.397 41.462L97.503 44H96.954ZM102.524 39.14H102.884V44H102.506L102.461 42.947C102.245 43.307 101.951 43.589 101.579 43.793C101.213 43.997 100.802 44.099 100.346 44.099C99.6319 44.099 99.0379 43.859 98.5639 43.379C98.0899 42.893 97.8529 42.29 97.8529 41.57C97.8529 40.85 98.0899 40.25 98.5639 39.77C99.0379 39.284 99.6319 39.041 100.346 39.041C100.802 39.041 101.213 39.146 101.579 39.356C101.951 39.56 102.245 39.842 102.461 40.202L102.524 39.14ZM100.373 43.667C100.763 43.667 101.114 43.577 101.426 43.397C101.744 43.217 101.99 42.968 102.164 42.65C102.344 42.326 102.434 41.966 102.434 41.57C102.434 40.964 102.239 40.463 101.849 40.067C101.459 39.671 100.967 39.473 100.373 39.473C99.7789 39.473 99.2839 39.674 98.8879 40.076C98.4979 40.472 98.3029 40.97 98.3029 41.57C98.3029 42.17 98.4979 42.671 98.8879 43.073C99.2839 43.469 99.7789 43.667 100.373 43.667ZM110.656 39.14H110.908V44H110.494V39.95L107.317 44H107.056V39.14H107.479V43.172L110.656 39.14ZM118.689 39.14H118.941V44H118.527V39.95L115.35 44H115.089V39.14H115.512V43.172L118.689 39.14ZM124.154 39.14H124.586V44H124.154V41.696H121.076V44H120.644V39.14H121.076V41.273H124.154V39.14ZM129.896 39.14V39.545H127.952V44H127.52V39.545H125.585V39.14H129.896ZM135.145 41.552C135.145 41.594 135.142 41.651 135.136 41.723H130.726C130.75 42.101 130.849 42.437 131.023 42.731C131.203 43.025 131.443 43.256 131.743 43.424C132.043 43.586 132.376 43.667 132.742 43.667C133.138 43.667 133.489 43.574 133.795 43.388C134.107 43.196 134.353 42.929 134.533 42.587H135.001C134.779 43.073 134.473 43.448 134.083 43.712C133.693 43.97 133.246 44.099 132.742 44.099C132.04 44.099 131.455 43.859 130.987 43.379C130.519 42.893 130.285 42.287 130.285 41.561C130.285 40.847 130.519 40.25 130.987 39.77C131.461 39.284 132.046 39.041 132.742 39.041C133.444 39.041 134.02 39.281 134.47 39.761C134.92 40.241 135.145 40.838 135.145 41.552ZM132.742 39.464C132.202 39.464 131.746 39.638 131.374 39.986C131.002 40.328 130.789 40.769 130.735 41.309H134.713C134.689 41.039 134.62 40.79 134.506 40.562C134.398 40.328 134.257 40.13 134.083 39.968C133.909 39.806 133.705 39.683 133.471 39.599C133.243 39.509 133 39.464 132.742 39.464ZM139.328 39.14V39.536H136.835V44H136.403V39.14H139.328ZM142.852 39.041C143.566 39.041 144.157 39.281 144.625 39.761C145.093 40.241 145.327 40.844 145.327 41.57C145.327 42.296 145.093 42.899 144.625 43.379C144.157 43.859 143.566 44.099 142.852 44.099C142.408 44.099 142.003 44 141.637 43.802C141.277 43.604 140.986 43.331 140.764 42.983V45.719H140.323V39.14H140.647L140.737 40.202C140.959 39.842 141.253 39.56 141.619 39.356C141.991 39.146 142.402 39.041 142.852 39.041ZM142.816 43.667C143.416 43.667 143.911 43.469 144.301 43.073C144.691 42.677 144.886 42.176 144.886 41.57C144.886 40.964 144.691 40.463 144.301 40.067C143.911 39.671 143.416 39.473 142.816 39.473C142.228 39.473 141.736 39.674 141.34 40.076C140.944 40.472 140.746 40.97 140.746 41.57C140.746 42.17 140.944 42.671 141.34 43.073C141.736 43.469 142.228 43.667 142.816 43.667ZM150.864 39.14H151.224V44H150.846L150.801 42.947C150.585 43.307 150.291 43.589 149.919 43.793C149.553 43.997 149.142 44.099 148.686 44.099C147.972 44.099 147.378 43.859 146.904 43.379C146.43 42.893 146.193 42.29 146.193 41.57C146.193 40.85 146.43 40.25 146.904 39.77C147.378 39.284 147.972 39.041 148.686 39.041C149.142 39.041 149.553 39.146 149.919 39.356C150.291 39.56 150.585 39.842 150.801 40.202L150.864 39.14ZM148.713 43.667C149.103 43.667 149.454 43.577 149.766 43.397C150.084 43.217 150.33 42.968 150.504 42.65C150.684 42.326 150.774 41.966 150.774 41.57C150.774 40.964 150.579 40.463 150.189 40.067C149.799 39.671 149.307 39.473 148.713 39.473C148.119 39.473 147.624 39.674 147.228 40.076C146.838 40.472 146.643 40.97 146.643 41.57C146.643 42.17 146.838 42.671 147.228 43.073C147.624 43.469 148.119 43.667 148.713 43.667ZM156.715 43.586H157.408V45.341H157.003V44H152.917V39.14H153.349V43.586H156.283V39.14H156.715V43.586ZM162.177 39.14H162.429V44H162.015V39.95L158.838 44H158.577V39.14H159V43.172L162.177 39.14ZM165.311 39.14H167.399V43.991H166.967V42.02H165.446L164.15 44H163.664L164.978 41.966C164.624 41.906 164.336 41.75 164.114 41.498C163.898 41.246 163.79 40.94 163.79 40.58C163.79 40.16 163.931 39.815 164.213 39.545C164.501 39.275 164.867 39.14 165.311 39.14ZM165.32 41.588H166.967V39.572H165.347C165.017 39.572 164.75 39.665 164.546 39.851C164.342 40.037 164.24 40.28 164.24 40.58C164.24 40.874 164.339 41.117 164.537 41.309C164.741 41.495 165.002 41.588 165.32 41.588ZM52.464 51.14V51.545H50.52V56H50.088V51.545H48.153V51.14H52.464ZM57.7129 53.552C57.7129 53.594 57.7099 53.651 57.7039 53.723H53.2939C53.3179 54.101 53.4169 54.437 53.5909 54.731C53.7709 55.025 54.0109 55.256 54.3109 55.424C54.6109 55.586 54.9439 55.667 55.3099 55.667C55.7059 55.667 56.0569 55.574 56.3629 55.388C56.6749 55.196 56.9209 54.929 57.1009 54.587H57.5689C57.3469 55.073 57.0409 55.448 56.6509 55.712C56.2609 55.97 55.8139 56.099 55.3099 56.099C54.6079 56.099 54.0229 55.859 53.5549 55.379C53.0869 54.893 52.8529 54.287 52.8529 53.561C52.8529 52.847 53.0869 52.25 53.5549 51.77C54.0289 51.284 54.6139 51.041 55.3099 51.041C56.0119 51.041 56.5879 51.281 57.0379 51.761C57.4879 52.241 57.7129 52.838 57.7129 53.552ZM55.3099 51.464C54.7699 51.464 54.3139 51.638 53.9419 51.986C53.5699 52.328 53.3569 52.769 53.3029 53.309H57.2809C57.2569 53.039 57.1879 52.79 57.0739 52.562C56.9659 52.328 56.8249 52.13 56.6509 51.968C56.4769 51.806 56.2729 51.683 56.0389 51.599C55.8109 51.509 55.5679 51.464 55.3099 51.464ZM62.3582 56H61.8542L60.2162 53.75L58.5872 56H58.0922L59.9552 53.462L58.2632 51.14H58.7672L60.2252 53.147L61.6922 51.14H62.1872L60.4862 53.444L62.3582 56ZM66.8052 51.14H67.2372V56H66.8052V53.696H63.7272V56H63.2952V51.14H63.7272V53.273H66.8052V51.14ZM71.062 56.099C70.336 56.099 69.73 55.859 69.244 55.379C68.758 54.899 68.515 54.296 68.515 53.57C68.515 52.844 68.755 52.241 69.235 51.761C69.721 51.281 70.327 51.041 71.053 51.041C71.785 51.041 72.391 51.281 72.871 51.761C73.357 52.241 73.6 52.844 73.6 53.57C73.6 54.296 73.357 54.899 72.871 55.379C72.391 55.859 71.788 56.099 71.062 56.099ZM71.062 55.667C71.458 55.667 71.815 55.577 72.133 55.397C72.451 55.217 72.7 54.968 72.88 54.65C73.06 54.326 73.15 53.966 73.15 53.57C73.15 52.964 72.952 52.463 72.556 52.067C72.16 51.671 71.662 51.473 71.062 51.473C70.66 51.473 70.3 51.563 69.982 51.743C69.664 51.923 69.415 52.175 69.235 52.499C69.055 52.817 68.965 53.174 68.965 53.57C68.965 54.17 69.163 54.671 69.559 55.073C69.955 55.469 70.456 55.667 71.062 55.667ZM75.5302 51.14H78.5272V56H78.0952V51.527H75.9082L75.5932 54.407C75.5332 54.995 75.3892 55.409 75.1612 55.649C74.9332 55.889 74.5822 56.009 74.1082 56.009H74.0272V55.595H74.1262C74.4562 55.595 74.6992 55.508 74.8552 55.334C75.0172 55.154 75.1222 54.851 75.1702 54.425L75.5302 51.14ZM82.3647 56.099C81.6387 56.099 81.0327 55.859 80.5467 55.379C80.0607 54.899 79.8177 54.296 79.8177 53.57C79.8177 52.844 80.0577 52.241 80.5377 51.761C81.0237 51.281 81.6297 51.041 82.3557 51.041C83.0877 51.041 83.6937 51.281 84.1737 51.761C84.6597 52.241 84.9027 52.844 84.9027 53.57C84.9027 54.296 84.6597 54.899 84.1737 55.379C83.6937 55.859 83.0907 56.099 82.3647 56.099ZM82.3647 55.667C82.7607 55.667 83.1177 55.577 83.4357 55.397C83.7537 55.217 84.0027 54.968 84.1827 54.65C84.3627 54.326 84.4527 53.966 84.4527 53.57C84.4527 52.964 84.2547 52.463 83.8587 52.067C83.4627 51.671 82.9647 51.473 82.3647 51.473C81.9627 51.473 81.6027 51.563 81.2847 51.743C80.9667 51.923 80.7177 52.175 80.5377 52.499C80.3577 52.817 80.2677 53.174 80.2677 53.57C80.2677 54.17 80.4657 54.671 80.8617 55.073C81.2577 55.469 81.7587 55.667 82.3647 55.667ZM89.1069 51.14V51.536H86.6139V56H86.1819V51.14H89.1069ZM93.7019 51.14H93.9539V56H93.5399V51.95L90.3629 56H90.1019V51.14H90.5249V55.172L93.7019 51.14ZM98.3745 51.14H98.7975V56H98.3745V53.957C97.9365 54.137 97.4985 54.227 97.0605 54.227C96.5025 54.227 96.0525 54.071 95.7105 53.759C95.3745 53.447 95.2065 53.003 95.2065 52.427V51.14H95.6385V52.391C95.6385 52.841 95.7645 53.189 96.0165 53.435C96.2685 53.681 96.6255 53.804 97.0875 53.804C97.5135 53.804 97.9425 53.705 98.3745 53.507V51.14ZM104.937 53.552C104.937 53.594 104.934 53.651 104.928 53.723H100.518C100.542 54.101 100.641 54.437 100.815 54.731C100.995 55.025 101.235 55.256 101.535 55.424C101.835 55.586 102.168 55.667 102.534 55.667C102.93 55.667 103.281 55.574 103.587 55.388C103.899 55.196 104.145 54.929 104.325 54.587H104.793C104.571 55.073 104.265 55.448 103.875 55.712C103.485 55.97 103.038 56.099 102.534 56.099C101.832 56.099 101.247 55.859 100.779 55.379C100.311 54.893 100.077 54.287 100.077 53.561C100.077 52.847 100.311 52.25 100.779 51.77C101.253 51.284 101.838 51.041 102.534 51.041C103.236 51.041 103.812 51.281 104.262 51.761C104.712 52.241 104.937 52.838 104.937 53.552ZM102.534 51.464C101.994 51.464 101.538 51.638 101.166 51.986C100.794 52.328 100.581 52.769 100.527 53.309H104.505C104.481 53.039 104.412 52.79 104.298 52.562C104.19 52.328 104.049 52.13 103.875 51.968C103.701 51.806 103.497 51.683 103.263 51.599C103.035 51.509 102.792 51.464 102.534 51.464ZM108.283 56.099C107.575 56.099 106.981 55.859 106.501 55.379C106.021 54.893 105.781 54.29 105.781 53.57C105.781 52.844 106.018 52.241 106.492 51.761C106.972 51.281 107.569 51.041 108.283 51.041C108.829 51.041 109.306 51.188 109.714 51.482C110.128 51.77 110.416 52.157 110.578 52.643H110.137C109.975 52.277 109.729 51.992 109.399 51.788C109.075 51.578 108.703 51.473 108.283 51.473C107.695 51.473 107.206 51.674 106.816 52.076C106.426 52.472 106.231 52.97 106.231 53.57C106.231 54.164 106.426 54.662 106.816 55.064C107.212 55.466 107.701 55.667 108.283 55.667C108.697 55.667 109.066 55.565 109.39 55.361C109.72 55.151 109.972 54.857 110.146 54.479H110.596C110.422 54.977 110.128 55.373 109.714 55.667C109.3 55.955 108.823 56.099 108.283 56.099ZM114.998 56L113.054 53.669H112.208V56H111.767V51.14H112.208V53.255H113.063L114.836 51.14H115.376L113.441 53.462L115.547 56H114.998ZM120.016 51.14H120.268V56H119.854V51.95L116.677 56H116.416V51.14H116.839V55.172L120.016 51.14ZM125.49 56H124.986L123.348 53.75L121.719 56H121.224L123.087 53.462L121.395 51.14H121.899L123.357 53.147L124.824 51.14H125.319L123.618 53.444L125.49 56ZM131.435 51.041C132.149 51.041 132.74 51.281 133.208 51.761C133.676 52.241 133.91 52.844 133.91 53.57C133.91 54.296 133.676 54.899 133.208 55.379C132.74 55.859 132.149 56.099 131.435 56.099C130.991 56.099 130.586 56 130.22 55.802C129.86 55.604 129.569 55.331 129.347 54.983V57.719H128.906V51.14H129.23L129.32 52.202C129.542 51.842 129.836 51.56 130.202 51.356C130.574 51.146 130.985 51.041 131.435 51.041ZM131.399 55.667C131.999 55.667 132.494 55.469 132.884 55.073C133.274 54.677 133.469 54.176 133.469 53.57C133.469 52.964 133.274 52.463 132.884 52.067C132.494 51.671 131.999 51.473 131.399 51.473C130.811 51.473 130.319 51.674 129.923 52.076C129.527 52.472 129.329 52.97 129.329 53.57C129.329 54.17 129.527 54.671 129.923 55.073C130.319 55.469 130.811 55.667 131.399 55.667ZM139.636 53.552C139.636 53.594 139.633 53.651 139.627 53.723H135.217C135.241 54.101 135.34 54.437 135.514 54.731C135.694 55.025 135.934 55.256 136.234 55.424C136.534 55.586 136.867 55.667 137.233 55.667C137.629 55.667 137.98 55.574 138.286 55.388C138.598 55.196 138.844 54.929 139.024 54.587H139.492C139.27 55.073 138.964 55.448 138.574 55.712C138.184 55.97 137.737 56.099 137.233 56.099C136.531 56.099 135.946 55.859 135.478 55.379C135.01 54.893 134.776 54.287 134.776 53.561C134.776 52.847 135.01 52.25 135.478 51.77C135.952 51.284 136.537 51.041 137.233 51.041C137.935 51.041 138.511 51.281 138.961 51.761C139.411 52.241 139.636 52.838 139.636 53.552ZM137.233 51.464C136.693 51.464 136.237 51.638 135.865 51.986C135.493 52.328 135.28 52.769 135.226 53.309H139.204C139.18 53.039 139.111 52.79 138.997 52.562C138.889 52.328 138.748 52.13 138.574 51.968C138.4 51.806 138.196 51.683 137.962 51.599C137.734 51.509 137.491 51.464 137.233 51.464ZM146.348 51.14H146.789V56H140.894V51.14H141.326V55.586H143.63V51.14H144.053V55.586H146.348V51.14ZM152.925 53.552C152.925 53.594 152.922 53.651 152.916 53.723H148.506C148.53 54.101 148.629 54.437 148.803 54.731C148.983 55.025 149.223 55.256 149.523 55.424C149.823 55.586 150.156 55.667 150.522 55.667C150.918 55.667 151.269 55.574 151.575 55.388C151.887 55.196 152.133 54.929 152.313 54.587H152.781C152.559 55.073 152.253 55.448 151.863 55.712C151.473 55.97 151.026 56.099 150.522 56.099C149.82 56.099 149.235 55.859 148.767 55.379C148.299 54.893 148.065 54.287 148.065 53.561C148.065 52.847 148.299 52.25 148.767 51.77C149.241 51.284 149.826 51.041 150.522 51.041C151.224 51.041 151.8 51.281 152.25 51.761C152.7 52.241 152.925 52.838 152.925 53.552ZM150.522 51.464C149.982 51.464 149.526 51.638 149.154 51.986C148.782 52.328 148.569 52.769 148.515 53.309H152.493C152.469 53.039 152.4 52.79 152.286 52.562C152.178 52.328 152.037 52.13 151.863 51.968C151.689 51.806 151.485 51.683 151.251 51.599C151.023 51.509 150.78 51.464 150.522 51.464ZM157.693 51.14H158.125V56H157.693V53.696H154.615V56H154.183V51.14H154.615V53.273H157.693V51.14ZM163.417 51.14H163.669V56H163.255V51.95L160.078 56H159.817V51.14H160.24V55.172L163.417 51.14ZM168.449 49.655V49.997H166.163V49.655H168.449ZM168.971 51.14H169.223V56H168.809V51.95L165.632 56H165.371V51.14H165.794V55.172L168.971 51.14Z" fill="white"/>
<g clip-path="url(#clip0_6025_225)">
<path fill-rule="evenodd" clip-rule="evenodd" d="M8.91547 19.8546C8.91547 22.7042 9.23264 24.8211 10.3719 27.1208C11.3397 29.0744 11.9898 30.2654 13.4947 31.7592C16.2106 34.4552 20.2111 36.642 24.1527 36.642C28.6855 36.642 30.7329 36.0129 34.3568 33.7285C35.8303 32.7997 37.2451 31.2632 38.2251 29.8325C41.5487 24.9802 42.2318 18.8465 39.5526 13.5587C37.5381 9.58277 35.7009 7.85748 31.7193 5.86303C25.7441 2.86989 18.2375 4.5184 13.6567 9.07988C11.1346 11.5915 8.91547 16.0388 8.91547 19.8546Z" fill="#376091"/>
<path fill-rule="evenodd" clip-rule="evenodd" d="M3.32195e-05 19.5315C3.32195e-05 21.9885 -0.0158422 23.1778 0.646503 25.6674C0.994974 26.9775 2.11448 29.6422 2.80618 30.7804C4.0878 32.8895 5.36446 34.6375 7.26928 36.1826C10.4979 38.8014 15.2075 41 19.6139 41C22.3293 41 24.564 40.9536 27.1663 39.9656C28.3339 39.5223 30.8658 38.5618 31.447 37.7717C30.4461 37.8546 29.6997 38.2708 28.5409 38.4288C24.3102 39.0056 22.0028 38.7544 18.0147 37.2657C14.4484 35.9344 10.7362 32.1145 8.96776 28.8416C6.03802 23.4193 6.55367 15.0368 10.3736 10.0072C11.813 8.1119 12.0963 8.04934 13.4922 6.65604C15.7732 4.37919 20.6379 2.42123 24.1527 2.42123C25.965 2.42123 27.4418 2.33443 29.1806 2.74116C29.5767 2.83386 30.1475 2.94107 30.4959 3.04561C30.9848 3.19226 31.2026 3.34265 31.7713 3.38973C31.6354 3.27221 31.5037 3.15497 31.3198 3.03224C31.1312 2.90628 30.9873 2.8355 30.8017 2.74104C26.9184 0.76462 24.6211 0 19.9381 0C17.1616 0 13.8455 1.00442 11.9947 1.93636C7.30581 4.29742 4.20388 7.09655 2.05365 11.73C1.01074 13.9774 3.32195e-05 16.8906 3.32195e-05 19.5315Z" fill="white"/>
<path fill-rule="evenodd" clip-rule="evenodd" d="M92.2989 29.0536C92.9359 29.0539 93.0601 28.7136 93.0377 27.8915L93.0443 18.5629C94.0541 19.8825 96.4641 25.6652 97.5156 25.6652C98.0979 25.6652 98.6799 25.6652 99.2621 25.6652C100.314 25.6652 102.724 19.8825 103.733 18.5629L103.74 27.8915C103.718 28.7136 103.842 29.0539 104.479 29.0536L107.939 29.0513C108.567 29.051 108.611 28.6752 108.591 27.8934L108.591 10.6167C108.591 10.2795 108.337 10.0147 107.961 10.0147L104.478 10.0084C103.89 10.0073 103.484 10.2624 103.187 10.7548L98.3889 19.2003L93.5911 10.7548C93.2939 10.2624 92.888 10.0074 92.2994 10.0084L88.8164 10.0147C88.4404 10.0147 88.1866 10.2795 88.1866 10.6167L88.1865 27.8934C88.167 28.6752 88.2112 29.051 88.8386 29.0513L92.2989 29.0536ZM142.093 20.6209L136.457 11.0055C136.024 10.3126 135.78 10.0134 135.154 10.0126L131.462 10.0081C131.018 10.0081 130.551 10.4092 130.552 10.8289L130.575 27.8599C130.537 29.0547 130.8 29.0544 131.669 29.0546L134.609 29.0552C135.297 29.0552 135.503 28.6301 135.503 27.9118L135.501 17.8905L141.676 28.085C142.029 28.7099 142.152 29.056 142.768 29.0559L146.665 29.0553C147.517 29.0284 147.361 28.861 147.361 27.9051L147.364 10.5343C147.364 10.1027 147.399 10.0093 146.988 10.0094L142.752 10.0116C142.167 10.0119 142.095 10.2024 142.095 10.5596C142.088 13.9133 142.093 17.2672 142.093 20.6209ZM151.4 29.0551L154.289 29.0622C155.265 29.0645 155.367 28.6671 155.758 27.4226C155.988 26.691 156.257 25.7343 156.425 25.0196H162.909C163.115 25.904 163.352 26.5236 163.591 27.4072C163.947 28.7236 164.099 29.0519 165.203 29.0527L167.934 29.055C169.517 29.055 168.955 27.8352 168.642 26.8977L163.288 11.8896C162.562 10.2658 162.812 10.0228 161.458 10.0113L158.031 10.0102C156.544 10.0091 156.86 10.0226 156.123 11.6983L150.692 26.8978C150.378 27.8353 149.816 29.0551 151.4 29.0551ZM75.9633 25.5497C74.9875 25.4874 74.8829 25.4277 74.3539 24.9072C72.8046 23.3828 73.1063 21.1596 73.1063 18.8858C73.1063 17.2716 73.1063 15.6574 73.1063 14.0432C73.1063 12.6718 73.1677 11.7585 73.1278 11.1522C73.0769 10.3791 72.8663 10.0122 72.1426 10.0114L68.8918 10.008C68.1869 10.008 67.997 10.4118 67.8927 10.9983C67.6074 12.6035 67.7795 20.7976 67.9684 22.3222C68.2842 24.8704 69.3081 27.2548 71.7535 28.4654C74.5218 29.8361 77.8616 29.8361 80.63 28.4654C83.0754 27.2548 84.0993 24.8704 84.4151 22.3222C84.604 20.7976 84.7761 12.6035 84.4907 10.9983C84.3865 10.4118 84.1965 10.008 83.4917 10.008L80.2408 10.0114C79.5172 10.012 79.3065 10.3791 79.2556 11.1522C79.2158 11.7585 79.2771 12.6718 79.2771 14.0432C79.2771 15.6574 79.2771 17.2716 79.2771 18.8858C79.2771 21.1596 79.5789 23.3828 78.0296 24.9072C77.5005 25.4277 77.3959 25.4874 76.4202 25.5497C76.2644 25.5597 76.1191 25.5597 75.9633 25.5497ZM51.061 29.0551H63.9612C64.4545 29.0551 64.525 28.855 64.5237 28.4461L64.5163 26.204C64.514 25.4998 64.5337 25.3405 63.8337 25.3406L54.7892 25.3423V21.1455H61.4353C62.876 21.1855 62.5181 20.7107 62.5699 18.24C62.5294 17.2162 61.5528 17.2782 61.3272 17.2782L54.7892 17.2715V13.7203H63.3804C64.0193 13.7203 64.5151 13.3896 64.5151 12.9143V11.1376C64.5151 10.3953 64.1319 10.0127 63.548 10.0126L50.8711 10.0109C50.0393 10.0143 49.4821 10.0154 49.4819 11.0629L49.4767 27.3476C49.4765 28.2667 50.2264 29.0551 51.061 29.0551ZM113.731 28.97H126.631C127.124 28.97 127.194 28.77 127.193 28.361L127.186 26.119C127.184 25.4148 127.203 25.2554 126.503 25.2555L117.459 25.2572V21.0604H124.105C125.545 21.1004 125.188 20.6256 125.239 18.1549C125.199 17.1312 124.222 17.1931 123.997 17.1931L117.459 17.1864V13.6352H126.05C126.689 13.6352 127.185 13.3045 127.185 12.8292V11.0525C127.185 10.3102 126.801 9.92754 126.218 9.92748L113.541 9.92578C112.709 9.92918 112.152 9.93032 112.151 10.9777L112.146 27.2625C112.146 28.1815 112.896 28.97 113.731 28.97ZM157.625 21.4029L161.718 21.4274L159.667 15.6322L157.625 21.4029Z" fill="white"/>
<path fill-rule="evenodd" clip-rule="evenodd" d="M19.8013 27.3001C20.5855 27.7144 29.5687 27.5991 30.6772 27.3202C31.5078 23.5334 30.2955 24.7525 23.9957 24.6615L23.2407 24.6428L23.2124 21.4634C27.4752 21.0887 29.1933 22.3755 29.1933 20.1773C29.1933 17.9175 29.0087 18.4908 23.8284 18.5621L23.1799 18.5632L23.1527 15.7787C24.6973 15.7711 29.5547 16.0988 30.485 15.4961C30.6791 14.8917 30.7143 13.8226 30.5124 13.2362C30.0535 12.6035 22.1664 12.9159 20.7402 12.9402C18.7149 12.9746 19.2282 12.8927 19.2911 18.4016L19.5384 26.8945C19.664 27.268 19.6047 27.1006 19.8013 27.3001Z" fill="white"/>
</g>
<defs>
<clipPath id="clip0_6025_225">
<rect width="169" height="41" fill="white"/>
</clipPath>
</defs>
</svg>
