<svg width="20" height="20" viewBox="0 0 20 20" fill="none" xmlns="http://www.w3.org/2000/svg">
<g clip-path="url(#clip0_4013_286)">
<path d="M20 5.67814C20 2.29689 17.6219 0.0250194 14.0875 0.0250194H9.375H9.33437H5.6625C4.93175 0.00281784 4.20382 0.125292 3.52057 0.385398C2.83732 0.645505 2.21223 1.03811 1.68125 1.54064L1.6 1.61564L1.51875 1.70002C1.01632 2.23058 0.623534 2.85508 0.362916 3.53772C0.102299 4.22037 -0.021031 4.94774 -3.12086e-06 5.67814V14.3563C-0.0211308 15.0869 0.102455 15.8146 0.36364 16.4973C0.624826 17.1801 1.01845 17.8044 1.52187 18.3344L1.6 18.4188L1.68125 18.4969C2.21208 18.9998 2.83707 19.3929 3.52031 19.6536C4.20355 19.9142 4.93156 20.0373 5.6625 20.0156H14.3375C17.7219 20.0156 19.9937 17.6406 19.9937 14.1063V11.1719C19.9937 11.1719 19.9937 11.1438 19.9937 11.1313L20 5.67814ZM18.5219 14.1156C18.5219 16.8094 16.8812 18.55 14.3406 18.55H5.90312C4.7365 18.5922 3.59733 18.1901 2.71562 17.425L2.65312 17.3656L2.59375 17.3031C1.83062 16.4173 1.43291 15.2745 1.48125 14.1063V5.93752C1.43108 4.7677 1.82768 3.62259 2.59062 2.73439L2.65625 2.66564L2.70937 2.61564C3.59663 1.85044 4.74185 1.45157 5.9125 1.50002H14.0875C16.7812 1.50002 18.5219 3.14064 18.5219 5.67814V10.1031C18.5219 10.1188 18.5219 10.1313 18.5219 10.1438V14.1156Z" fill="white"/>
<path d="M16.0156 6.85005C15.9562 6.77613 15.8827 6.71466 15.7994 6.66915C15.7162 6.62365 15.6248 6.595 15.5305 6.58484C15.4362 6.57468 15.3408 6.58321 15.2497 6.60995C15.1587 6.63669 15.0738 6.68111 15 6.74067L10.8875 10.0469C10.6376 10.2421 10.3296 10.348 10.0125 10.348C9.69541 10.348 9.38743 10.2421 9.1375 10.0469L4.99999 6.73755C4.84896 6.63076 4.66283 6.58574 4.47969 6.61171C4.29655 6.63767 4.13026 6.73264 4.01486 6.8772C3.89946 7.02175 3.84367 7.20495 3.85891 7.38929C3.87416 7.57363 3.95929 7.74517 4.09687 7.8688L8.24062 11.1844C8.74626 11.5834 9.37155 11.8003 10.0156 11.8003C10.6597 11.8003 11.285 11.5834 11.7906 11.1844L15.9031 7.87192C15.9782 7.81262 16.0407 7.73899 16.087 7.65532C16.1334 7.57165 16.1627 7.4796 16.1731 7.38452C16.1836 7.28944 16.1751 7.19323 16.148 7.10147C16.121 7.00972 16.076 6.92426 16.0156 6.85005Z" fill="white"/>
</g>
<defs>
<clipPath id="clip0_4013_286">
<rect width="20" height="20" fill="white"/>
</clipPath>
</defs>
</svg>
