<svg width="33" height="40" viewBox="0 0 33 40" fill="none" xmlns="http://www.w3.org/2000/svg">
<path fill-rule="evenodd" clip-rule="evenodd" d="M14.9134 0.0780746C8.43012 0.650855 2.90731 5.01769 0.85189 11.1965C-0.512737 15.2986 -0.230994 19.6497 1.64749 23.4868C2.88821 26.0212 4.34468 27.7628 6.85512 29.7139C9.87337 32.0598 11.9709 34.4395 14.0108 37.8323C14.4519 38.566 14.8967 39.2729 14.9991 39.4031C15.6401 40.2179 17.1258 40.1941 17.757 39.3587C17.8726 39.2059 18.4164 38.3326 18.9655 37.418C20.115 35.5035 20.7144 34.6476 21.7427 33.4528C22.9495 32.0504 24.1431 30.963 25.9563 29.6138C27.6689 28.3396 28.8666 27.0929 29.969 25.4371C33.1624 20.6404 33.6139 14.5808 31.1634 9.40577C28.6265 4.04805 23.552 0.563961 17.5627 0.0675007C16.4469 -0.0249355 16.0624 -0.0234005 14.9134 0.0780746ZM18.367 9.40449C20.3215 9.97633 21.9414 11.3203 22.8471 13.1215C23.3421 14.1061 23.5334 14.8666 23.587 16.0627C23.6882 18.3211 22.948 20.1211 21.2619 21.7172C20.6811 22.267 20.3555 22.4949 19.663 22.8363C18.4281 23.445 17.6806 23.6227 16.3631 23.6208C14.7758 23.6185 13.5133 23.2294 12.211 22.341C11.6452 21.955 10.7291 21.0266 10.3163 20.4209C9.96154 19.9004 9.52818 18.9482 9.31994 18.2315C9.07137 17.3761 9.08936 15.3577 9.3538 14.4427C10.1449 11.7048 12.376 9.70934 15.2255 9.19079C15.9865 9.05239 17.52 9.15668 18.367 9.40449Z" fill="#EFC075"/>
</svg>
