<svg width="13" height="16" viewBox="0 0 13 16" fill="none" xmlns="http://www.w3.org/2000/svg">
<path fill-rule="evenodd" clip-rule="evenodd" d="M5.75016 0.0317627C4.27277 0.184238 2.9328 0.825196 1.87432 1.88574C0.885387 2.87661 0.304701 4.00661 0.0585223 5.41923C-0.019215 5.86547 -0.01959 7.05074 0.0578974 7.45949C0.405903 9.29494 1.57293 11.2307 3.71005 13.5176C4.41853 14.2757 5.27448 15.0802 6.07042 15.7361L6.39068 16L6.71094 15.7361C7.50687 15.0802 8.36282 14.2757 9.0713 13.5176C11.2084 11.2307 12.3755 9.29494 12.7235 7.45949C12.8009 7.05074 12.8006 5.86547 12.7228 5.41923C12.5665 4.52244 12.2913 3.78656 11.8345 3.04402C11.324 2.21438 10.5596 1.45628 9.70264 0.929741C8.54523 0.218638 7.10653 -0.108214 5.75016 0.0317627ZM7.23429 1.32343C9.37435 1.67443 11.0783 3.36322 11.4684 5.5198C11.5377 5.90321 11.5631 6.69655 11.5172 7.04337C11.3095 8.61121 10.1957 10.4921 8.23828 12.5807C7.84213 13.0034 7.38127 13.4541 6.5713 14.211L6.39068 14.3798L6.21005 14.211C4.98653 13.0676 4.36463 12.4285 3.71136 11.6433C2.8297 10.5836 2.27335 9.75574 1.84782 8.87041C1.51453 8.177 1.34338 7.64118 1.26417 7.04337C1.21821 6.69655 1.24361 5.90321 1.31297 5.5198C1.63986 3.7126 2.87534 2.22934 4.59831 1.57564C4.99537 1.42497 5.42227 1.33149 6.01574 1.26522C6.21333 1.24316 6.96336 1.27897 7.23429 1.32343ZM5.89126 3.48251C4.94423 3.65383 4.15289 4.24954 3.73445 5.10618C3.49924 5.5877 3.43994 5.85378 3.44206 6.41847C3.44419 6.98457 3.49974 7.22868 3.73502 7.70601C4.06606 8.37753 4.58706 8.86866 5.26189 9.14534C6.71484 9.74099 8.3497 9.11922 9.04634 7.70601C9.28161 7.22868 9.33716 6.98457 9.33929 6.41847C9.34141 5.85378 9.28211 5.5877 9.0469 5.10618C8.47009 3.92531 7.16252 3.25255 5.89126 3.48251ZM6.74999 4.73146C7.64191 4.91909 8.236 5.79926 8.08009 6.70217C7.96779 7.35244 7.43113 7.92297 6.78936 8.07426C6.19815 8.21368 5.62121 8.04649 5.18462 7.60924C4.47821 6.90177 4.51101 5.78873 5.25792 5.12299C5.66642 4.75893 6.20661 4.61717 6.74999 4.73146Z" fill="#CECED3"/>
</svg>
