<svg width="20" height="20" viewBox="0 0 20 20" fill="none" xmlns="http://www.w3.org/2000/svg">
<path d="M7.93376 2.17219C7.65948 2.15224 7.37845 2.18027 7.10286 2.26171L6.11654 2.55386C5.06551 2.8647 4.24431 3.69861 3.96647 4.75113C3.34956 7.09186 4.05528 9.86245 5.89193 12.9811C7.72599 16.0955 9.81584 18.0748 12.1761 18.7209C13.239 19.0118 14.3853 18.7339 15.1904 17.986L15.9408 17.2902C16.7803 16.5107 16.9055 15.2123 16.2272 14.2897L15.1432 12.8175C14.5622 12.0283 13.5379 11.6923 12.596 11.9753L10.9001 12.4831C10.8289 12.5039 10.6585 12.4069 10.5103 12.2788L10.5094 12.278C10.2454 12.0484 9.87953 11.5843 9.48812 10.9206V10.9197C9.06842 10.207 8.88941 9.74078 8.81754 9.46549C8.74564 9.19007 8.76309 9.15656 8.7736 9.06347C8.77906 9.01701 8.80113 8.97397 8.8387 8.93977L8.83952 8.93896L10.1042 7.78254C10.8287 7.12019 11.0474 6.06171 10.6388 5.17105L9.8763 3.50764V3.50683C9.5173 2.72428 8.75636 2.23203 7.93376 2.17219ZM7.84342 3.41894C8.226 3.44752 8.5783 3.677 8.73942 4.02847L9.50277 5.69188C9.6875 6.09456 9.59486 6.55536 9.26107 6.8605L7.99642 8.0161C7.73716 8.25249 7.57137 8.57478 7.53174 8.92268V8.92349C7.52141 9.01498 7.49701 9.3552 7.60823 9.78124C7.71946 10.2073 7.94909 10.7708 8.41064 11.5545H8.41146C8.84212 12.2849 9.24914 12.8398 9.68994 13.2228H9.69075C9.83391 13.3467 10.4339 13.9217 11.25 13.6834L11.2524 13.6826L12.9557 13.1724C13.398 13.0395 13.8709 13.1981 14.1366 13.5589L15.2205 15.0311C15.5275 15.4493 15.4739 16.0177 15.0903 16.3739L14.34 17.0705C13.8601 17.5164 13.1476 17.6905 12.5057 17.5148C10.5976 16.9925 8.7095 15.302 6.9694 12.3472C5.22688 9.38832 4.68187 6.94108 5.17497 5.07014C5.33796 4.45266 5.83737 3.94009 6.47135 3.75259L7.45687 3.46044C7.58524 3.4225 7.7159 3.40941 7.84342 3.41894Z" fill="white"/>
</svg>
