<svg width="16" height="16" viewBox="0 0 16 16" fill="none" xmlns="http://www.w3.org/2000/svg">
<path fill-rule="evenodd" clip-rule="evenodd" d="M2.8277 0.0443726C2.41475 0.144205 2.14061 0.355982 1.24574 1.26624C0.565657 1.95806 0.409649 2.15097 0.243845 2.50533C-0.0912672 3.2215 -0.0805955 4.28085 0.273514 5.44936C0.517306 6.25381 1.10701 7.56206 1.57394 8.33428C3.09809 10.8549 5.25414 13.0009 7.70361 14.4354C9.07861 15.2406 10.3434 15.7475 11.4641 15.9426C11.9347 16.0246 12.67 16.0178 12.9976 15.9285C13.3053 15.8446 13.6945 15.6604 13.9117 15.496C14.0013 15.4281 14.4241 15.0135 14.8513 14.5745C15.4933 13.9147 15.6479 13.7382 15.7436 13.5561C16.0131 13.0433 16.0221 12.6243 15.7749 12.1054C15.6691 11.8833 15.5956 11.8031 14.4086 10.6145C13.2178 9.42214 13.1422 9.35276 12.9194 9.24708C12.414 9.00741 11.8977 9.03514 11.4354 9.32675C11.3479 9.38193 10.9628 9.73676 10.5795 10.1153L9.88259 10.8036L9.65626 10.6832C9.02703 10.3486 8.43145 9.93238 7.81987 9.39977C7.2691 8.9201 6.45241 8.04827 6.0302 7.4893C5.68451 7.0316 5.18938 6.21535 5.18938 6.10316C5.18938 6.08378 5.48363 5.77512 5.84327 5.41725C6.51472 4.74916 6.69373 4.52427 6.81847 4.19219C6.99651 3.71831 6.89158 3.15931 6.54148 2.71673C6.37567 2.50711 4.48624 0.611072 4.24814 0.41535C3.80196 0.0485975 3.32517 -0.0759274 2.8277 0.0443726ZM3.49943 0.888257C3.6426 0.954791 3.86158 1.15868 4.80129 2.10068C6.03743 3.33979 6.0824 3.39666 6.08006 3.71819C6.07796 4.0082 5.98338 4.13501 5.16876 4.94034C4.76652 5.33795 4.41504 5.70658 4.38766 5.75953C4.35223 5.82804 4.34128 5.91579 4.34963 6.06379C4.35974 6.24289 4.38809 6.32589 4.55374 6.66147C5.00108 7.56773 5.61203 8.36861 6.64303 9.40036C7.5195 10.2774 8.33571 10.9057 9.21324 11.3787C9.43832 11.5 9.68145 11.6152 9.75356 11.6346C9.89689 11.6732 10.0662 11.6535 10.2123 11.5811C10.264 11.5555 10.6443 11.1991 11.0574 10.7891C11.5908 10.2599 11.8495 10.0252 11.9493 9.97989C12.137 9.89477 12.3817 9.89502 12.5529 9.98052C12.7424 10.0752 14.9536 12.2841 15.048 12.473C15.1913 12.76 15.1532 13.0503 14.9359 13.3259C14.718 13.6024 13.4513 14.8462 13.2851 14.9469C12.9414 15.1553 12.8013 15.1877 12.2465 15.1869C11.8504 15.1863 11.6753 15.1715 11.4084 15.1158C10.6267 14.9528 9.91364 14.6865 8.9605 14.2015C6.65896 13.0305 4.77372 11.4165 3.14813 9.22564C2.26741 8.03863 1.58245 6.76966 1.16353 5.54898C0.742634 4.3225 0.695409 3.42604 1.01763 2.77932C1.12231 2.5692 1.2166 2.46198 1.91797 1.75571C2.55803 1.11121 2.73287 0.952319 2.87352 0.887568C3.09668 0.784825 3.27713 0.785013 3.49943 0.888257Z" fill="#CECED3"/>
</svg>
