<svg width="20" height="20" viewBox="0 0 20 20" fill="none" xmlns="http://www.w3.org/2000/svg">
<path fill-rule="evenodd" clip-rule="evenodd" d="M9.24857 0.0116334C9.17327 0.0203909 8.94444 0.0466245 8.74005 0.0699649C5.64481 0.423238 2.78501 2.36233 1.21564 5.17198C0.642496 6.19802 0.226956 7.47291 0.0505782 8.74635C-0.0168594 9.23325 -0.0168594 10.7616 0.0505782 11.2485C0.463184 14.2273 2.05254 16.7573 4.53498 18.3869C7.57155 20.3803 11.5503 20.5383 14.7641 18.7932C15.2548 18.5268 15.366 18.4382 15.4642 18.2354C15.6331 17.8867 15.5232 17.4788 15.1988 17.2505C15.0586 17.1518 14.996 17.1338 14.7911 17.1332C14.6409 17.1328 14.5043 17.1566 14.4316 17.1959C13.7751 17.5502 13.5093 17.6805 13.1407 17.8284C11.8768 18.3356 10.5198 18.5317 9.18693 18.3999C5.84548 18.0696 3.01513 15.8051 1.97646 12.6311C1.39827 10.8642 1.39823 9.12898 1.97634 7.36379C2.81329 4.80803 4.80462 2.82046 7.36744 1.98282C9.12403 1.4087 10.865 1.40983 12.6268 1.98623C14.5388 2.61169 16.1199 3.86581 17.2083 5.62022C17.8429 6.64321 18.2754 7.9448 18.4009 9.20987C18.5796 11.0115 18.1278 12.8867 17.1276 14.4935C16.9074 14.8472 16.8964 14.877 16.8962 15.119C16.8959 15.4239 16.9958 15.6149 17.2402 15.7765C17.4577 15.9204 17.8405 15.9264 18.0609 15.7895C18.2956 15.6437 18.7742 14.8669 19.1426 14.034C20.976 9.88882 19.8008 5.04988 16.2701 2.20571C14.8477 1.05992 13.2655 0.371475 11.4 0.0866981C11.01 0.0271546 9.55287 -0.0236705 9.24857 0.0116334ZM7.88042 6.15048C7.31808 6.30151 6.8739 6.75108 6.72717 7.31777C6.63748 7.66432 6.63713 12.3285 6.72678 12.6771C6.85164 13.1625 7.25842 13.6192 7.72137 13.7937C8.04225 13.9147 8.46737 13.9323 8.76763 13.837C8.91819 13.7892 9.80149 13.3024 11.0951 12.5542C12.7495 11.5973 13.2226 11.306 13.387 11.1428C14.0128 10.5217 14.0128 9.47311 13.387 8.85207C13.2226 8.68888 12.7495 8.39753 11.0951 7.44065C9.80071 6.69204 8.9207 6.20701 8.77389 6.16135C8.49499 6.07459 8.1774 6.07072 7.88042 6.15048ZM10.2697 8.76977C11.3324 9.38475 12.2277 9.91255 12.2592 9.94265C12.3095 9.99074 12.3095 10.0041 12.2592 10.052C12.1384 10.1671 8.33054 12.3445 8.28235 12.326C8.24147 12.3104 8.23153 11.8563 8.23153 10.0052C8.23153 8.73939 8.24327 7.69204 8.25763 7.67773C8.27194 7.66338 8.2958 7.65166 8.31059 7.65166C8.32538 7.65166 9.20699 8.15482 10.2697 8.76977Z" fill="black"/>
</svg>
