<svg width="77" height="77" viewBox="0 0 77 77" fill="none" xmlns="http://www.w3.org/2000/svg">
<path d="M3.43994 23.3601C2.84994 24.7701 2.33993 26.2201 1.92993 27.6801L49.0499 74.8001C50.5099 74.3901 51.9499 73.8801 53.3699 73.2901L3.43994 23.3601Z" fill="#84A3C9"/>
<path d="M6.68005 17.26C5.89005 18.46 5.19005 19.7 4.55005 20.96L55.7701 72.18C57.0301 71.54 58.2701 70.84 59.4701 70.05L6.68005 17.26Z" fill="#84A3C9"/>
<path d="M10.79 12.05C9.84001 13.07 8.95 14.1201 8.12 15.2101L61.52 68.61C62.61 67.79 63.67 66.9 64.68 65.94L10.79 12.05Z" fill="#84A3C9"/>
<path d="M74.72 25.8C72.9 20.45 69.86 15.41 65.59 11.15C61.32 6.88001 56.2899 3.84002 50.9399 2.02002L74.72 25.8Z" fill="#84A3C9"/>
<path d="M31.09 75.5101C33.25 75.9401 35.45 76.1801 37.65 76.2401L0.5 39.0901C0.56 41.2901 0.790011 43.4801 1.23001 45.6501L31.09 75.5101Z" fill="#84A3C9"/>
<path d="M1.25006 30.5C0.900061 32.2 0.680068 33.92 0.570068 35.65L41.0901 76.17C42.8201 76.06 44.5401 75.83 46.2401 75.49L1.25006 30.5Z" fill="#84A3C9"/>
<path d="M21.46 4.05005C20.2 4.69005 18.96 5.39004 17.76 6.18004L70.56 58.98C71.35 57.78 72.05 56.54 72.69 55.28L21.46 4.05005Z" fill="#84A3C9"/>
<path d="M46.1401 0.729996C43.9801 0.299996 41.7801 0.06 39.5801 0L76.73 37.15C76.67 34.95 76.4401 32.76 76.0001 30.59L46.1401 0.729996Z" fill="#84A3C9"/>
<path d="M2.51001 50.4299C4.33001 55.7799 7.37001 60.8199 11.64 65.0799C15.91 69.3499 20.94 72.3899 26.29 74.2099L2.51001 50.4299Z" fill="#84A3C9"/>
<path d="M28.18 1.42993C26.72 1.83993 25.28 2.34994 23.86 2.93994L73.7899 52.8699C74.3799 51.4599 74.89 50.0099 75.3 48.5499L28.18 1.42993Z" fill="#84A3C9"/>
<path d="M36.14 0.0700684C34.41 0.180068 32.69 0.410076 30.99 0.750076L75.98 45.7401C76.33 44.0401 76.55 42.3201 76.66 40.5901L36.14 0.0700684Z" fill="#84A3C9"/>
<path d="M15.7101 7.62988C14.6201 8.44988 13.56 9.33988 12.55 10.2999L66.4501 64.1999C67.4001 63.1799 68.2901 62.1299 69.1201 61.0399L15.7101 7.62988Z" fill="#84A3C9"/>
</svg>
