<svg width="20" height="20" viewBox="0 0 20 20" fill="none" xmlns="http://www.w3.org/2000/svg">
<path fill-rule="evenodd" clip-rule="evenodd" d="M8.07089 0.0235652C8.00632 0.0330515 7.79499 0.0635766 7.60128 0.091378C5.79456 0.350795 3.96939 1.27989 2.6246 2.62468C1.29976 3.94952 0.461913 5.56397 0.102797 7.48396C0.00544495 8.0042 -0.0318895 9.39995 0.0360641 9.97697C0.282003 12.0659 1.16409 13.9015 2.61929 15.3527C4.18974 16.919 6.11808 17.8033 8.34632 17.9794C10.4233 18.1435 12.7148 17.4838 14.3344 16.2556L14.6103 16.0463L16.5416 17.9698C18.6479 20.0674 18.5966 20.0271 19.1081 19.9901C19.6015 19.9544 19.9543 19.6014 19.99 19.1076C20.027 18.5968 20.067 18.6476 17.9697 16.5417L16.0462 14.6104L16.2529 14.3345C17.7453 12.3415 18.3319 9.65049 17.8161 7.16279C17.0396 3.41824 13.9765 0.56588 10.1906 0.0618861C9.74564 0.00266728 8.3814 -0.0219877 8.07089 0.0235652ZM10.1842 2.08857C11.1317 2.24256 12.2872 2.72683 13.1062 3.31319C13.6183 3.67982 14.3194 4.38782 14.6925 4.9151C15.2786 5.74346 15.7009 6.74088 15.8993 7.76573C16.0129 8.35242 16.0111 9.66961 15.8959 10.253C15.3225 13.1566 13.1565 15.3226 10.2529 15.896C9.66952 16.0112 8.35234 16.013 7.76564 15.8994C6.35857 15.627 5.06069 14.9539 4.08581 13.9911C1.67757 11.6127 1.29891 7.92329 3.17255 5.09238C3.54148 4.53499 4.39196 3.65775 4.92446 3.28534C6.20994 2.38631 7.72352 1.93157 9.22146 1.99436C9.50558 2.00629 9.9388 2.04865 10.1842 2.08857Z" fill="#6B95C9"/>
</svg>
