<svg width="17" height="16" viewBox="0 0 17 16" fill="none" xmlns="http://www.w3.org/2000/svg">
<path fill-rule="evenodd" clip-rule="evenodd" d="M15.5434 1.5512C15.4229 1.58437 15.2743 1.63282 15.2132 1.65885C15.1521 1.68489 14.4199 1.96643 13.586 2.28453C3.26905 6.22019 1.72108 6.81354 1.57566 6.8882C1.24148 7.05975 1.05823 7.2676 1.00112 7.53982C0.951801 7.77489 1.00672 7.9577 1.18687 8.15807C1.40877 8.40488 1.62229 8.48753 3.21394 8.94259C4.00566 9.16893 4.6568 9.35688 4.66093 9.36023C4.66506 9.36354 5.01526 10.358 5.43919 11.5701C5.86312 12.7823 6.25187 13.8573 6.30307 13.959C6.42364 14.1985 6.67104 14.4438 6.90245 14.5532C7.26664 14.7253 7.74643 14.6858 8.11131 14.4537C8.18876 14.4044 8.66551 13.9849 9.17073 13.5215C9.67596 13.058 10.1014 12.6788 10.1161 12.6788C10.1308 12.6788 10.7023 13.1294 11.3862 13.6801C12.07 14.2309 12.6966 14.7272 12.7786 14.7832C13.0421 14.9627 13.2269 15.021 13.5406 15.0235C13.7864 15.0255 13.8462 15.0146 14.01 14.9381C14.3062 14.7997 14.5412 14.5331 14.6638 14.1965C14.692 14.119 15.2239 11.5491 15.8459 8.48549C17.0757 2.42825 17.0539 2.55568 16.9254 2.18714C16.7366 1.64565 16.1616 1.38103 15.5434 1.5512ZM16.0222 2.46784C16.0428 2.48849 16.0597 2.55217 16.0597 2.60935C16.0597 2.69938 13.8839 13.5206 13.8046 13.8247C13.7365 14.0864 13.5603 14.1716 13.3511 14.044C13.2605 13.9887 8.71063 10.3343 8.6968 10.3057C8.69317 10.2982 9.77403 9.14024 11.0987 7.73252C12.4233 6.32477 13.542 5.13144 13.5847 5.08068C13.6424 5.01209 13.6653 4.94321 13.6736 4.81241C13.687 4.60353 13.6176 4.4665 13.456 4.38257C13.2395 4.27019 13.1655 4.29401 12.2083 4.78396C11.7191 5.03437 10.6922 5.55925 9.9263 5.95041C9.16041 6.34158 8.25212 6.80612 7.9079 6.98277C7.56368 7.15939 6.76358 7.56792 6.12986 7.89058L4.97768 8.47726L3.57165 8.07599C2.79834 7.85528 2.16566 7.66702 2.16569 7.65764C2.16578 7.62393 15.7959 2.43407 15.8892 2.4322C15.9417 2.43113 16.0015 2.44719 16.0222 2.46784ZM10.9216 6.55315C10.8774 6.60046 10.1195 7.40667 9.23745 8.34467C8.35536 9.28268 7.61587 10.0783 7.59416 10.1127C7.57244 10.1472 7.41009 10.7668 7.23338 11.4896C7.05667 12.2125 6.90349 12.8141 6.893 12.8265C6.88252 12.8389 6.58821 12.0312 6.23898 11.0317C5.88975 10.0321 5.60839 9.21024 5.61378 9.20526C5.61913 9.20029 6.36281 8.81858 7.26639 8.357C8.16998 7.89543 9.36694 7.28234 9.9263 6.99457C10.4857 6.7068 10.9565 6.47041 10.9726 6.46922C10.9888 6.46806 10.9658 6.50583 10.9216 6.55315ZM8.82432 11.616C9.11199 11.849 9.34738 12.0508 9.34738 12.0645C9.34738 12.0949 7.70343 13.6113 7.68766 13.5955C7.68153 13.5894 7.79556 13.1002 7.94104 12.5083C8.25181 11.2442 8.26539 11.1923 8.2857 11.1923C8.29424 11.1923 8.53661 11.383 8.82432 11.616Z" fill="#3E98D9"/>
</svg>
