<svg width="14" height="16" viewBox="0 0 14 16" fill="none" xmlns="http://www.w3.org/2000/svg">
<path fill-rule="evenodd" clip-rule="evenodd" d="M6.00819 0.0398845C4.79426 0.220885 3.75936 0.956247 3.1635 2.06125C2.64926 3.01497 2.58833 4.26016 3.00482 5.30577C3.44953 6.42225 4.55415 7.36681 5.69526 7.60636C6.08818 7.68885 6.15699 7.6957 6.58286 7.69498C7.69875 7.69304 8.59205 7.31039 9.36809 6.50189C9.92968 5.91677 10.2642 5.25366 10.3918 4.47293C10.4415 4.16813 10.4323 3.46641 10.3741 3.14002C10.1767 2.03189 9.47412 1.06149 8.44153 0.470606C7.76272 0.0821618 6.83086 -0.0827853 6.00819 0.0398845ZM7.33816 1.02422C7.82737 1.15286 8.25402 1.40393 8.63295 1.78608C9.0617 2.21849 9.32244 2.68417 9.44238 3.23168C9.52059 3.58858 9.50516 4.22756 9.40946 4.59591C9.20415 5.38635 8.66565 6.0538 7.90904 6.45558C7.19064 6.83704 6.21808 6.87287 5.43709 6.54664C4.82734 6.29191 4.18908 5.66433 3.90697 5.04212C3.73142 4.65499 3.68006 4.38211 3.68113 3.84243C3.68229 3.26798 3.73595 3.02142 3.95811 2.57011C4.28853 1.8988 4.97689 1.2929 5.65902 1.073C6.1426 0.917068 6.85249 0.896445 7.33816 1.02422ZM3.17759 7.75754C2.32869 7.84103 1.64271 8.22587 1.10537 8.92008C0.926189 9.15153 0.622925 9.72345 0.487143 10.0859C0.200966 10.8498 0.000407195 12.1145 3.81346e-07 13.1578C-0.000249965 13.7609 0.122764 14.2952 0.359216 14.718C0.608562 15.1639 1.12315 15.6002 1.63013 15.7958C2.19013 16.0117 1.89844 15.9999 6.66535 15.9999C11.2263 15.9999 11.1104 16.0034 11.5784 15.8531C12.4294 15.5797 13.0423 14.93 13.2702 14.0597C13.3561 13.7319 13.3825 13.0309 13.3334 12.3855C13.27 11.5532 13.1492 10.9085 12.9359 10.264C12.4252 8.72122 11.4973 7.88274 10.1604 7.75607C9.68876 7.71138 9.64072 7.72825 8.91847 8.1922C8.41543 8.51534 8.31567 8.56847 7.95317 8.70641C7.41386 8.91164 6.92978 8.98492 6.40549 8.94067C6.05839 8.91138 5.81906 8.8544 5.41775 8.70554C5.04295 8.5665 5.01676 8.5527 4.47394 8.20763C3.72024 7.72856 3.66548 7.70953 3.17759 7.75754ZM3.93679 8.97663C4.51081 9.34489 4.80518 9.49375 5.2585 9.64503C5.76082 9.81263 5.97906 9.85166 6.52766 9.87193C7.13194 9.89425 7.49084 9.84483 8.04548 9.66299C8.55018 9.49754 8.80776 9.37212 9.34513 9.03014C9.96439 8.63607 9.90337 8.66138 10.1563 8.69361C11.1439 8.81945 11.8147 9.57468 12.1706 10.9617C12.3918 11.8238 12.4933 13.2337 12.3729 13.7719C12.2248 14.4343 11.7186 14.9073 11.0258 15.0308C10.6593 15.0961 2.69933 15.0955 2.33235 15.0301C1.86655 14.9471 1.45282 14.6816 1.21428 14.3125C0.963146 13.924 0.906599 13.5171 0.966808 12.5321C1.04551 11.2445 1.31842 10.263 1.78622 9.58475C2.1818 9.01124 2.67001 8.73395 3.40481 8.66542C3.42731 8.66332 3.6667 8.80336 3.93679 8.97663Z" fill="#CECED3"/>
</svg>
