<svg width="14" height="14" viewBox="0 0 14 14" fill="none" xmlns="http://www.w3.org/2000/svg">
<path fill-rule="evenodd" clip-rule="evenodd" d="M6.23454 0.0305264C5.41569 0.136968 4.58999 0.383965 3.90851 0.726345C3.34962 1.00711 2.7103 1.46848 2.21522 1.94828C1.10022 3.02894 0.414291 4.35108 0.158311 5.913C0.0920409 6.31732 0.0838194 7.46863 0.144296 7.8733C0.265249 8.68247 0.441793 9.25514 0.800704 10.0027L1.00832 10.435L0.522341 12.2115C0.255068 13.1886 0.0417169 13.9933 0.0482415 13.9999C0.0547953 14.0064 0.873352 13.7988 1.86728 13.5385C2.86121 13.2782 3.6865 13.0655 3.70124 13.0659C3.71599 13.0663 3.86082 13.131 4.02308 13.2096C4.58174 13.4803 5.22065 13.6848 5.872 13.8015C6.30856 13.8796 7.33339 13.9101 7.7892 13.8585C9.38011 13.6782 10.8273 12.9818 11.9556 11.8535C12.5116 11.2975 12.9164 10.7306 13.2694 10.0136C13.7406 9.05636 13.9501 8.21773 13.9799 7.16938C14.0057 6.26235 13.9081 5.57522 13.6359 4.74756C12.824 2.27963 10.6683 0.461909 8.0778 0.0610428C7.65458 -0.00443707 6.63365 -0.0213483 6.23454 0.0305264ZM8.0692 1.2443C10.3194 1.66144 12.1207 3.3559 12.6589 5.5619C12.9189 6.62728 12.8588 7.83816 12.4951 8.86609C12.0736 10.0573 11.2464 11.1037 10.1698 11.8078C9.8493 12.0174 9.23956 12.3097 8.86063 12.4353C7.70181 12.8196 6.37813 12.8197 5.21764 12.4355C4.91403 12.335 4.37278 12.0867 4.04017 11.8953L3.87925 11.8027L2.80044 12.0849C2.20712 12.2401 1.71625 12.3617 1.70964 12.355C1.70303 12.3484 1.82386 11.8838 1.97814 11.3224C2.13242 10.761 2.26001 10.282 2.26162 10.2578C2.26326 10.2337 2.19436 10.102 2.10854 9.96526C1.56118 9.09308 1.26064 8.02489 1.26064 6.95167C1.26064 5.55591 1.72482 4.28756 2.63306 3.20179C3.54501 2.11154 4.9302 1.36531 6.3662 1.19061C6.74898 1.14406 7.68808 1.17367 8.0692 1.2443ZM4.30949 3.8089C4.2046 3.86119 4.10369 3.94928 3.9828 4.09417C3.63881 4.50639 3.49565 4.93435 3.52131 5.47355C3.54831 6.04083 3.76111 6.54799 4.27441 7.26856C5.14037 8.48413 6.1728 9.37998 7.23259 9.83542C7.69285 10.0332 8.31324 10.2289 8.59152 10.264C9.20009 10.3409 9.75716 10.1646 10.2023 9.75428C10.3635 9.60577 10.4332 9.47531 10.508 9.18287C10.581 8.89778 10.5833 8.64218 10.5135 8.57205C10.4606 8.51874 9.34345 7.96544 9.07568 7.8599C8.99232 7.82704 8.88413 7.80016 8.83521 7.80016C8.73617 7.80016 8.75876 7.7778 8.34826 8.28189C8.19147 8.47444 8.02774 8.65183 7.98444 8.67606C7.88604 8.73115 7.82173 8.71079 7.33172 8.46941C6.88219 8.24798 6.50108 7.97512 6.14869 7.6225C5.75675 7.2303 5.29827 6.59291 5.29827 6.44021C5.29827 6.40612 5.41121 6.22908 5.54925 6.04674C5.68729 5.86441 5.82144 5.67077 5.84736 5.61641C5.90611 5.49318 5.90403 5.48654 5.52143 4.56713C5.16886 3.71993 5.18101 3.73327 4.76229 3.73327C4.49721 3.73327 4.44314 3.74231 4.30949 3.8089Z" fill="#26A560"/>
</svg>
